<svg width="178.107178" height="164.604248" viewBox="0 0 178.107 164.604" fill="none" xmlns="http://www.w3.org/2000/svg" xmlns:xlink="http://www.w3.org/1999/xlink">
	<desc>
			Created with Pixso.
	</desc>
	<defs/>
	<path id="Vector 4" d="M167.34 85.42C181.93 125.74 131.16 153.91 112.26 134.66C72.12 93.76 66.91 145.73 42.69 147.54C18.48 149.34 7.13 86.95 30.61 53.75C67.25 1.95 86.97 14.69 105.01 35.11C138.38 72.9 152.76 45.09 167.34 85.42Z" fill="#F1F2F2" fill-opacity="1.000000" fill-rule="evenodd"/>
	<path id="Vector" d="M44.63 74.09L43.06 74.09L45 72.35L44.63 74.09Z" fill="#50336E" fill-opacity="1.000000" fill-rule="nonzero"/>
	<path id="Vector" d="M32.3 114.83L74.54 114.83L74.54 73.8L58.9 52.52L44.03 72.78L44.03 83.68L32.3 95.4L32.3 114.83Z" fill="#D9A78B" fill-opacity="1.000000" fill-rule="nonzero"/>
	<path id="Vector" d="M32.3 109.24L74.54 109.24L74.54 109.89L32.3 109.89L32.3 109.24Z" fill="#B68B73" fill-opacity="1.000000" fill-rule="evenodd"/>
	<path id="Vector" d="M74.54 73.8L88.13 73.8L88.13 114.83L74.54 114.83L74.54 73.8Z" fill="#B68B73" fill-opacity="1.000000" fill-rule="evenodd"/>
	<path id="Vector" d="M58.62 52.14L72.63 52.14L89.09 73.8L74.54 73.8L58.62 52.14Z" fill="#3864A7" fill-opacity="1.000000" fill-rule="nonzero"/>
	<path id="Vector" d="M77.46 73.8L60.99 52.14L59.76 52.14L76.23 73.8L77.46 73.8Z" fill="#073D8E" fill-opacity="1.000000" fill-rule="nonzero"/>
	<path id="Vector" d="M79.9 73.8L63.43 52.14L62.19 52.14L78.66 73.8L79.9 73.8Z" fill="#073D8E" fill-opacity="1.000000" fill-rule="nonzero"/>
	<path id="Vector" d="M82.33 73.8L65.86 52.14L64.62 52.14L81.1 73.8L82.33 73.8Z" fill="#073D8E" fill-opacity="1.000000" fill-rule="nonzero"/>
	<path id="Vector" d="M84.76 73.8L68.29 52.14L67.06 52.14L83.53 73.8L84.76 73.8Z" fill="#073D8E" fill-opacity="1.000000" fill-rule="nonzero"/>
	<path id="Vector" d="M87.2 73.8L70.72 52.14L69.49 52.14L85.96 73.8L87.2 73.8Z" fill="#073D8E" fill-opacity="1.000000" fill-rule="nonzero"/>
	<path id="Vector" d="M89.09 73.8L72.63 52.14L71.92 52.14L88.4 73.8L89.09 73.8Z" fill="#073D8E" fill-opacity="1.000000" fill-rule="nonzero"/>
	<path id="Vector" d="M67.67 47.7L70.02 47.7L70.02 53.76L67.67 53.76L67.67 47.7Z" fill="#3864A7" fill-opacity="1.000000" fill-rule="evenodd"/>
	<path id="Vector" d="M67.67 53.76L66.56 52.14L65.46 52.14L65.46 47.7L67.67 47.7L67.67 53.76Z" fill="#073D8D" fill-opacity="1.000000" fill-rule="nonzero"/>
	<path id="Vector" d="M43.73 74.09L42.51 74.09L58.62 52.14L59.21 52.94L43.73 74.09Z" fill="#3864A7" fill-opacity="1.000000" fill-rule="nonzero"/>
	<path id="Vector" d="M44.03 82.98L29.74 97L31.83 97L32.3 96.52L32.3 114.83L44.03 114.83L44.03 84.72L44.03 82.98Z" fill="#B68B73" fill-opacity="1.000000" fill-rule="nonzero"/>
	<path id="Vector" d="M49.43 79.71L53.42 79.71L53.42 90.76L49.43 90.76L49.43 79.71Z" fill="#FFFFFF" fill-opacity="1.000000" fill-rule="evenodd"/>
	<path id="Vector" d="M57 79.71L60.99 79.71L60.99 90.76L57 90.76L57 79.71Z" fill="#FFFFFF" fill-opacity="1.000000" fill-rule="evenodd"/>
	<path id="Vector" d="M64.57 79.71L68.55 79.71L68.55 90.76L64.57 90.76L64.57 79.71Z" fill="#FFFFFF" fill-opacity="1.000000" fill-rule="evenodd"/>
	<path id="Vector" d="M49.43 95.68L53.42 95.68L53.42 106.74L49.43 106.74L49.43 95.68Z" fill="#FFFFFF" fill-opacity="1.000000" fill-rule="evenodd"/>
	<path id="Vector" d="M57 95.68L60.99 95.68L60.99 106.74L57 106.74L57 95.68Z" fill="#FFFFFF" fill-opacity="1.000000" fill-rule="evenodd"/>
	<path id="Vector" d="M64.57 95.68L68.55 95.68L68.55 106.74L64.57 106.74L64.57 95.68Z" fill="#FFFFFF" fill-opacity="1.000000" fill-rule="evenodd"/>
	<path id="Vector" d="M59.88 64.93C61.46 65.31 62.45 66.89 62.07 68.48C61.7 70.06 60.11 71.05 58.53 70.68C56.94 70.3 55.96 68.72 56.33 67.13C56.7 65.55 58.29 64.56 59.88 64.93Z" fill="#FFFFFF" fill-opacity="1.000000" fill-rule="evenodd"/>
	<path id="Vector" d="M83.92 48.83L80.74 52.01L86.09 52.01L83.92 48.83Z" fill="#50336E" fill-opacity="1.000000" fill-rule="nonzero"/>
	<path id="Vector" d="M83.92 48.83L83.92 113.76L111.39 113.76C111.39 113.76 111.39 61.14 111.39 60L92.24 40.6L83.92 48.83Z" fill="#D9A78B" fill-opacity="1.000000" fill-rule="nonzero"/>
	<path id="Vector" d="M111.39 60L134.19 60L134.19 113.76L111.39 113.76L111.39 60Z" fill="#B68B73" fill-opacity="1.000000" fill-rule="evenodd"/>
	<path id="Vector" d="M92.24 40.6L114.01 40.6L134.19 60L111.39 60L92.24 40.6Z" fill="#FE5F5F" fill-opacity="1.000000" fill-rule="nonzero"/>
	<path id="Vector" d="M115.27 41.81L93.43 41.81L93.97 42.35L115.84 42.35L115.27 41.81Z" fill="#E41717" fill-opacity="1.000000" fill-rule="nonzero"/>
	<path id="Vector" d="M118.84 45.24L96.83 45.24L97.36 45.79L119.41 45.79L118.84 45.24Z" fill="#E41717" fill-opacity="1.000000" fill-rule="nonzero"/>
	<path id="Vector" d="M122.42 48.68L100.22 48.68L100.75 49.22L122.98 49.22L122.42 48.68Z" fill="#E41717" fill-opacity="1.000000" fill-rule="nonzero"/>
	<path id="Vector" d="M125.99 52.11L103.61 52.11L104.14 52.66L126.55 52.66L125.99 52.11Z" fill="#E41717" fill-opacity="1.000000" fill-rule="nonzero"/>
	<path id="Vector" d="M129.56 55.55L107 55.55L107.54 56.09L130.13 56.09L129.56 55.55Z" fill="#E41717" fill-opacity="1.000000" fill-rule="nonzero"/>
	<path id="Vector" d="M133.14 58.99L110.39 58.99L110.93 59.53L133.7 59.53L133.14 58.99Z" fill="#E41717" fill-opacity="1.000000" fill-rule="nonzero"/>
	<path id="Vector" d="M101.19 35.7L103.8 35.7L103.8 41.79L101.19 41.79L101.19 35.7Z" fill="#FE5F5F" fill-opacity="1.000000" fill-rule="evenodd"/>
	<path id="Vector" d="M101.19 41.79L99.97 40.6L98.75 40.6L98.75 35.7L101.19 35.7L101.19 41.79Z" fill="#E41717" fill-opacity="1.000000" fill-rule="nonzero"/>
	<path id="Vector" d="M81.16 110.99L111.39 110.99L111.39 115.7L81.16 115.7L81.16 110.99Z" fill="#B68B73" fill-opacity="1.000000" fill-rule="evenodd"/>
	<path id="Vector" d="M136.01 115.7L111.39 115.7L111.39 110.99L136.01 110.99L136.01 115.7Z" fill="#B68B73" fill-opacity="1.000000" fill-rule="evenodd"/>
	<path id="Vector" d="M94.44 55.21L90.4 55.21L90.4 49.83C90.4 48.72 91.31 47.81 92.42 47.81C93.54 47.81 94.44 48.72 94.44 49.83L94.44 55.21Z" fill="#FFFFFF" fill-opacity="1.000000" fill-rule="nonzero"/>
	<path id="Vector" d="M90.4 73.33L86.76 73.33L86.76 63.49C86.76 62.48 87.57 61.66 88.58 61.66C89.59 61.66 90.4 62.48 90.4 63.49L90.4 73.33Z" fill="#FFFFFF" fill-opacity="1.000000" fill-rule="nonzero"/>
	<path id="Vector" d="M95.89 73.33L92.24 73.33L92.24 63.49C92.24 62.48 93.05 61.66 94.06 61.66C95.07 61.66 95.89 62.48 95.89 63.49L95.89 73.33Z" fill="#FFFFFF" fill-opacity="1.000000" fill-rule="nonzero"/>
	<path id="Vector" d="M101.31 73.33L97.66 73.33L97.66 63.49C97.66 62.48 98.47 61.66 99.48 61.66C100.49 61.66 101.31 62.48 101.31 63.49L101.31 73.33Z" fill="#FFFFFF" fill-opacity="1.000000" fill-rule="nonzero"/>
	<path id="Vector" d="M106.83 73.33L103.18 73.33L103.18 63.49C103.18 62.48 103.99 61.66 105 61.66C106.01 61.66 106.83 62.48 106.83 63.49L106.83 73.33Z" fill="#FFFFFF" fill-opacity="1.000000" fill-rule="nonzero"/>
	<path id="Vector" d="M90.4 88.85L86.76 88.85L86.76 79C86.76 77.99 87.57 77.18 88.58 77.18C89.59 77.18 90.4 77.99 90.4 79L90.4 88.85Z" fill="#FFFFFF" fill-opacity="1.000000" fill-rule="nonzero"/>
	<path id="Vector" d="M95.89 88.85L92.24 88.85L92.24 79C92.24 77.99 93.05 77.18 94.06 77.18C95.07 77.18 95.89 77.99 95.89 79L95.89 88.85Z" fill="#FFFFFF" fill-opacity="1.000000" fill-rule="nonzero"/>
	<path id="Vector" d="M101.31 88.85L97.66 88.85L97.66 79C97.66 77.99 98.47 77.18 99.48 77.18C100.49 77.18 101.31 77.99 101.31 79L101.31 88.85Z" fill="#FFFFFF" fill-opacity="1.000000" fill-rule="nonzero"/>
	<path id="Vector" d="M106.83 88.85L103.18 88.85L103.18 79C103.18 77.99 103.99 77.18 105 77.18C106.01 77.18 106.83 77.99 106.83 79L106.83 88.85Z" fill="#FFFFFF" fill-opacity="1.000000" fill-rule="nonzero"/>
	<path id="Vector" d="M90.4 103.6L86.76 103.6L86.76 93.76C86.76 92.75 87.57 91.93 88.58 91.93C89.59 91.93 90.4 92.75 90.4 93.76L90.4 103.6Z" fill="#FFFFFF" fill-opacity="1.000000" fill-rule="nonzero"/>
	<path id="Vector" d="M95.89 103.6L92.24 103.6L92.24 93.76C92.24 92.75 93.05 91.93 94.06 91.93C95.07 91.93 95.89 92.75 95.89 93.76L95.89 103.6Z" fill="#FFFFFF" fill-opacity="1.000000" fill-rule="nonzero"/>
	<path id="Vector" d="M101.31 103.6L97.66 103.6L97.66 93.76C97.66 92.75 98.47 91.93 99.48 91.93C100.49 91.93 101.31 92.75 101.31 93.76L101.31 103.6Z" fill="#FFFFFF" fill-opacity="1.000000" fill-rule="nonzero"/>
	<path id="Vector" d="M106.83 103.6L103.18 103.6L103.18 93.76C103.18 92.75 103.99 91.93 105 91.93C106.01 91.93 106.83 92.75 106.83 93.76L106.83 103.6Z" fill="#FFFFFF" fill-opacity="1.000000" fill-rule="nonzero"/>
	<path id="Vector" d="M80.74 52.01L92.24 40.6L92.77 41.13L81.84 52.01L80.74 52.01Z" fill="#E41717" fill-opacity="1.000000" fill-rule="nonzero"/>
	<path id="Vector" d="M115.51 66.05L118.25 66.05L118.25 73.33L115.51 73.33L115.51 66.05Z" fill="#FFFFFF" fill-opacity="1.000000" fill-rule="evenodd"/>
	<path id="Vector" d="M119.48 66.05L122.22 66.05L122.22 73.33L119.48 73.33L119.48 66.05Z" fill="#FFFFFF" fill-opacity="1.000000" fill-rule="evenodd"/>
	<path id="Vector" d="M123.45 66.05L126.18 66.05L126.18 73.33L123.45 73.33L123.45 66.05Z" fill="#FFFFFF" fill-opacity="1.000000" fill-rule="evenodd"/>
	<path id="Vector" d="M127.41 66.05L130.15 66.05L130.15 73.33L127.41 73.33L127.41 66.05Z" fill="#FFFFFF" fill-opacity="1.000000" fill-rule="evenodd"/>
	<path id="Vector" d="M115.51 77.18L118.25 77.18L118.25 84.47L115.51 84.47L115.51 77.18Z" fill="#FFFFFF" fill-opacity="1.000000" fill-rule="evenodd"/>
	<path id="Vector" d="M119.48 77.18L122.22 77.18L122.22 84.47L119.48 84.47L119.48 77.18Z" fill="#FFFFFF" fill-opacity="1.000000" fill-rule="evenodd"/>
	<path id="Vector" d="M123.45 77.18L126.18 77.18L126.18 84.47L123.45 84.47L123.45 77.18Z" fill="#FFFFFF" fill-opacity="1.000000" fill-rule="evenodd"/>
	<path id="Vector" d="M127.41 77.18L130.15 77.18L130.15 84.47L127.41 84.47L127.41 77.18Z" fill="#FFFFFF" fill-opacity="1.000000" fill-rule="evenodd"/>
	<path id="Vector" d="M115.51 88.29L118.25 88.29L118.25 95.58L115.51 95.58L115.51 88.29Z" fill="#FFFFFF" fill-opacity="1.000000" fill-rule="evenodd"/>
	<path id="Vector" d="M119.48 88.29L122.22 88.29L122.22 95.58L119.48 95.58L119.48 88.29Z" fill="#FFFFFF" fill-opacity="1.000000" fill-rule="evenodd"/>
	<path id="Vector" d="M123.45 88.29L126.18 88.29L126.18 95.58L123.45 95.58L123.45 88.29Z" fill="#FFFFFF" fill-opacity="1.000000" fill-rule="evenodd"/>
	<path id="Vector" d="M127.41 88.29L130.15 88.29L130.15 95.58L127.41 95.58L127.41 88.29Z" fill="#FFFFFF" fill-opacity="1.000000" fill-rule="evenodd"/>
	<path id="Vector" d="M115.51 98.43L118.25 98.43L118.25 105.72L115.51 105.72L115.51 98.43Z" fill="#FFFFFF" fill-opacity="1.000000" fill-rule="evenodd"/>
	<path id="Vector" d="M119.48 98.43L122.22 98.43L122.22 105.72L119.48 105.72L119.48 98.43Z" fill="#FFFFFF" fill-opacity="1.000000" fill-rule="evenodd"/>
	<path id="Vector" d="M123.45 98.43L126.18 98.43L126.18 105.72L123.45 105.72L123.45 98.43Z" fill="#FFFFFF" fill-opacity="1.000000" fill-rule="evenodd"/>
	<path id="Vector" d="M127.41 98.43L130.15 98.43L130.15 105.72L127.41 105.72L127.41 98.43Z" fill="#FFFFFF" fill-opacity="1.000000" fill-rule="evenodd"/>
</svg>
