<svg width="12.452148" height="22.979736" viewBox="0 0 12.4521 22.9797" fill="none" xmlns="http://www.w3.org/2000/svg" xmlns:xlink="http://www.w3.org/1999/xlink">
	<desc>
			Created with Pixso.
	</desc>
	<defs/>
	<path id="Vector" d="M3.54 19.29L5.3 22.97L5.32 22.97L7.1 19.29L5.32 17.51L3.54 19.29Z" fill="#FFFFFF" fill-opacity="1.000000" fill-rule="nonzero"/>
	<path id="Vector" d="M5.32 1.77C4.93 1.97 0 4.54 0 8.66C0 12.17 2.9 17.51 2.9 17.51L5.32 15.13L7.74 17.51C7.74 17.51 10.65 12.2 10.65 8.66C10.62 4.54 5.69 1.97 5.32 1.77ZM6.91 13.52L5.32 11.95L3.73 13.52C3.66 13.3 2.58 10.46 2.58 8.61C2.58 6.11 5.12 4.71 5.32 4.61C5.52 4.69 8.06 6.11 8.06 8.61C8.06 10.46 6.98 13.3 6.91 13.52Z" fill="#FFFFFF" fill-opacity="1.000000" fill-rule="nonzero"/>
	<path id="Vector" d="M8.82 1.78L10.63 0L12.45 1.78L10.63 3.57L8.82 1.78Z" fill="#FFFFFF" fill-opacity="1.000000" fill-rule="evenodd"/>
	<path id="Vector" d="M6.59 8.56C6.59 9.24 6.03 9.8 5.34 9.8C4.66 9.8 4.1 9.24 4.1 8.56C4.1 7.88 4.66 7.32 5.34 7.32C6.03 7.32 6.59 7.88 6.59 8.56Z" fill="#FFFFFF" fill-opacity="1.000000" fill-rule="nonzero"/>
</svg>
