<svg width="38.309143" height="38.309204" viewBox="0 0 38.3091 38.3092" fill="none" xmlns="http://www.w3.org/2000/svg" xmlns:xlink="http://www.w3.org/1999/xlink">
	<desc>
			Created with Pixso.
	</desc>
	<defs/>
	<circle id="Ellipse 20" cx="19.154572" cy="19.154541" r="19.154573" fill="#FE5F5F" fill-opacity="1.000000"/>
	<path id="Vector" d="M17.21 26.15L18.97 29.43L18.99 29.43L20.77 26.15L18.99 24.57L17.21 26.15Z" fill="#FFFFFF" fill-opacity="1.000000" fill-rule="nonzero"/>
	<path id="Vector" d="M18.99 10.58C18.6 10.75 13.67 13.04 13.67 16.7C13.67 19.82 16.57 24.57 16.57 24.57L18.99 22.45L21.41 24.57C21.41 24.57 24.32 19.84 24.32 16.7C24.29 13.04 19.36 10.75 18.99 10.58ZM20.58 21.02L18.99 19.63L17.4 21.02C17.33 20.83 16.25 18.3 16.25 16.65C16.25 14.43 18.8 13.19 18.99 13.1C19.19 13.17 21.73 14.43 21.73 16.65C21.73 18.3 20.65 20.83 20.58 21.02Z" fill="#FFFFFF" fill-opacity="1.000000" fill-rule="nonzero"/>
	<path id="Vector" d="M22.49 10.58L24.3 9L26.12 10.58L24.3 12.17L22.49 10.58Z" fill="#FFFFFF" fill-opacity="1.000000" fill-rule="evenodd"/>
	<path id="Vector" d="M20.26 16.61C20.26 17.21 19.7 17.71 19.02 17.71C18.33 17.71 17.77 17.21 17.77 16.61C17.77 16.01 18.33 15.51 19.02 15.51C19.7 15.51 20.26 16.01 20.26 16.61Z" fill="#FFFFFF" fill-opacity="1.000000" fill-rule="nonzero"/>
</svg>
