<svg width="178.553345" height="177.152100" viewBox="0 0 178.553 177.152" fill="none" xmlns="http://www.w3.org/2000/svg" xmlns:xlink="http://www.w3.org/1999/xlink">
	<desc>
			Created with Pixso.
	</desc>
	<defs>
		<clipPath id="clip1_206">
			<rect id="Безымянный-1 1" width="101.000000" height="143.000000" transform="translate(34.000000 19.000000)" fill="white" fill-opacity="0"/>
		</clipPath>
	</defs>
	<path id="Vector 6" d="M130.38 26.16C176.17 34.15 178.48 89.52 150.81 95.45C92.02 108.06 139.34 137.96 129.29 158.63C119.23 179.3 53.85 157.78 33.44 122.22C1.58 66.73 23.4 56.9 51.77 52.25C104.28 43.65 84.6 18.17 130.38 26.16Z" fill="#F1F2F2" fill-opacity="1.000000" fill-rule="evenodd"/>
	<rect id="Безымянный-1 1" width="101.000000" height="143.000000" transform="translate(34.000000 19.000000)" fill="#FFFFFF" fill-opacity="0"/>
	<g clip-path="url(#clip1_206)">
		<path id="Vector" d="M58.04 46.1C58.04 46.1 60.81 45.81 61.81 48.49C62.81 51.18 63.76 52.06 63.87 53.47C64.35 59.17 67.01 57.88 66.26 61.17C65.51 64.45 65 64.95 65 64.95L58.64 63.7L52.2 63.72C52.2 63.72 54.71 62.46 54.16 59.78C53.59 57.09 52.2 52.7 52.99 49.7C53.77 46.71 56.38 46.33 58.04 46.1Z" fill="#454240" fill-opacity="1.000000" fill-rule="nonzero"/>
		<path id="Vector" d="M56.28 134.21C56.28 134.21 54.29 136.95 54.57 137.39C54.86 137.83 57.03 137.9 58.35 137.39C59.68 136.89 59.71 133.62 60.31 132.22C60.56 131.63 60.02 129.89 59.27 129.77C58.51 129.64 57.63 130.04 57.63 130.04C57.63 130.04 58.4 132.03 56.28 134.21Z" fill="#3865A7" fill-opacity="1.000000" fill-rule="nonzero"/>
		<path id="Vector" d="M57.63 130.04C57.63 130.04 57.47 131.33 57.22 132.25C56.97 133.16 55.61 135.24 55.68 135.5C55.74 135.75 57.44 135.98 58.14 135.33C58.83 134.68 59.37 132.79 59.43 131.65C59.49 130.51 59.27 129.77 59.27 129.77C59.27 129.77 58.29 129.34 57.63 130.04Z" fill="#E7A585" fill-opacity="1.000000" fill-rule="nonzero"/>
		<path id="Vector" d="M60.31 132.22L60.31 135.13L59.93 135.13L59.93 132.88L60.31 132.22Z" fill="#4F5587" fill-opacity="1.000000" fill-rule="nonzero"/>
		<path id="Vector" d="M61.5 134.21C61.5 134.21 59.51 136.95 59.79 137.39C60.07 137.83 62.25 137.9 63.57 137.39C64.89 136.89 64.93 133.62 65.53 132.22C65.78 131.63 65.24 129.89 64.49 129.77C63.73 129.64 62.85 130.04 62.85 130.04C62.85 130.04 63.62 132.03 61.5 134.21Z" fill="#3865A7" fill-opacity="1.000000" fill-rule="nonzero"/>
		<path id="Vector" d="M62.85 130.04C62.85 130.04 62.69 131.33 62.44 132.25C62.19 133.16 60.83 135.24 60.89 135.5C60.96 135.75 62.66 135.98 63.35 135.33C64.05 134.68 64.58 132.79 64.65 131.65C64.71 130.51 64.49 129.77 64.49 129.77C64.49 129.77 63.51 129.34 62.85 130.04Z" fill="#E7A585" fill-opacity="1.000000" fill-rule="nonzero"/>
		<path id="Vector" d="M65.53 132.22L65.53 135.13L65.15 135.13L65.15 132.88L65.53 132.22Z" fill="#4F5587" fill-opacity="1.000000" fill-rule="nonzero"/>
		<path id="Vector" d="M52.62 84.61C52.62 84.61 51.11 92.92 50.7 95.01C50.3 97.09 49.15 107.17 49.03 108.88C48.91 110.59 52.75 118.84 52.99 119.41C57.01 128.92 57.47 131.08 57.47 131.08C57.47 131.08 58.79 131.91 59.4 130.92C59.59 130.62 56.93 119.7 56.49 116.67C56.08 113.86 55.02 109.51 55.31 108.52C55.59 107.53 58.2 93.91 58.69 93.34C59.18 92.77 59.91 93.67 60.2 94.93C60.48 96.2 61.09 107.13 61.46 108.52C61.83 109.91 61.54 114.6 61.75 116.97C61.95 119.33 62.8 130.38 62.8 130.38C62.8 130.38 64.44 130.67 64.6 130.41C64.77 130.15 66.19 118.14 66.23 115.33C66.27 112.51 66.31 108.63 66.39 107.41C67.15 95.74 68.57 94.22 66.08 85.82C59.98 65.27 52.62 84.61 52.62 84.61Z" fill="#E7A585" fill-opacity="1.000000" fill-rule="nonzero"/>
		<path id="Vector" d="M52.62 84.61C52.62 84.61 51.11 92.92 50.7 95.01C50.3 97.09 49.15 107.17 49.03 108.88C48.91 110.59 52.62 118.84 52.7 119.45C52.78 120.06 55.83 128.82 55.83 128.82C55.83 128.82 58.92 128.77 59.76 127.97C59.93 127.81 56.93 119.7 56.49 116.67C56.08 113.86 55.02 109.51 55.31 108.52C55.59 107.53 58.2 93.91 58.69 93.34C59.18 92.77 59.91 93.67 60.2 94.93C60.48 96.2 61.09 107.13 61.46 108.52C61.83 109.91 61.54 114.6 61.75 116.97C61.95 119.33 61.52 127.74 61.52 127.74C61.52 127.74 65.56 127.95 65.72 127.69C65.89 127.43 66.19 118.14 66.23 115.33C66.27 112.51 66.32 108.63 66.39 107.41C67.15 95.74 68.58 94.22 66.08 85.82C59.98 65.27 52.62 84.61 52.62 84.61Z" fill="#FE5F5F" fill-opacity="1.000000" fill-rule="nonzero"/>
		<path id="Vector" d="M66.69 87.4C66.92 87.31 65.04 81.06 64.66 79.2C64.32 77.51 63.17 75.97 64.3 73.1C64.94 71.46 64.9 69.52 64.9 69.52C64.9 69.52 66.62 73.31 66.78 74.29C66.94 75.27 60.84 73.49 60.76 73.62C60.6 73.88 60.42 75.53 60.42 76.1C60.42 76.58 69.28 78.67 70.32 76.81C70.62 76.29 68.7 66.21 67.46 64.87C65.42 62.67 60.07 60.79 60.07 60.79C60.07 60.79 58.6 60 56.02 60.82C53.44 61.63 49.82 64.14 49.2 64.79C48.57 65.44 46.07 75.28 45.85 76.55C45.65 77.75 45.73 80.27 48.46 79.95L55.84 78.26L55.38 76.01L49.85 76.45C48.72 76.64 49.26 75.65 49.41 75.1C49.55 74.56 50.93 69.55 50.93 69.55C50.85 70.94 51.9 75.49 52.44 77.07C52.99 78.65 51.78 87.09 51.7 88.01C51.7 88.02 56.15 91.67 66.69 87.4Z" fill="#3865A7" fill-opacity="1.000000" fill-rule="nonzero"/>
		<path id="Vector" d="M61.27 61.25C61.27 61.25 59.45 65.01 57.93 66.11C57.93 66.11 55.19 62.01 55.33 61.06C55.33 61.06 58.36 59.72 61.27 61.25Z" fill="#E7A585" fill-opacity="1.000000" fill-rule="nonzero"/>
		<path id="Vector" d="M61.33 73.93C61.33 73.93 60.49 73.59 60.27 73.28C60.04 72.98 59.3 72.79 58.74 72.96C58.19 73.12 58.5 75.5 58.5 75.5L61.42 75.88L61.33 73.93Z" fill="#E7A585" fill-opacity="1.000000" fill-rule="nonzero"/>
		<path id="Vector" d="M56.05 75.75C56.05 75.75 56.33 74.21 56.26 73.93C56.19 73.64 56.76 73.36 56.84 74.06C56.92 74.76 56.96 75.21 56.96 75.21L56.05 75.75Z" fill="#E7A585" fill-opacity="1.000000" fill-rule="nonzero"/>
		<path id="Vector" d="M57.26 76.81L59.39 76.73C59.66 76.72 59.88 76.49 59.88 76.22L59.94 71.56C59.94 71.27 59.7 71.03 59.41 71.04L56.86 71.13C56.57 71.14 56.35 71.39 56.37 71.68L56.73 76.34C56.75 76.62 56.99 76.83 57.26 76.81Z" fill="#ECEBEB" fill-opacity="1.000000" fill-rule="nonzero"/>
		<path id="Vector" d="M56 75.87C56 75.87 55.96 75.44 56.8 75.04C57.91 74.5 59.4 73.96 59.65 74.1C60.02 74.3 59.83 74.58 59.13 74.81C58.42 75.05 58.19 75.12 58.19 75.12C58.19 75.12 59.57 74.99 59.88 75.15C60.18 75.32 60.2 75.7 59.98 75.76C59.75 75.82 59.22 75.86 59.22 75.86C59.22 75.86 59.8 75.88 59.86 76.12C59.9 76.29 59.93 76.54 59.37 76.64C59.37 76.64 59.75 77.06 59.19 77.33C58.62 77.59 57.61 77.83 57.1 77.92C56.03 78.09 53.64 77.96 53.64 77.96L54.62 76.29C54.62 76.29 55.17 76.34 55.55 76.21C56.05 76.04 56 75.87 56 75.87Z" fill="#E7A585" fill-opacity="1.000000" fill-rule="nonzero"/>
		<path id="Vector" d="M55.38 76.01L55.84 78.26L51.14 79.34L50.96 76.36L55.38 76.01Z" fill="#474D7C" fill-opacity="1.000000" fill-rule="nonzero"/>
		<path id="Vector" d="M60.76 73.62C60.76 73.62 60.37 74.45 60.42 76.1C60.42 76.1 63.33 77.17 65.6 77.42L65.6 74.56L60.76 73.62Z" fill="#474D7C" fill-opacity="1.000000" fill-rule="nonzero"/>
		<path id="Vector" d="M55.84 78.26L52.54 80.1C52.56 79.71 52.58 79.35 52.59 79.01L55.84 78.26Z" fill="#20233A" fill-opacity="1.000000" fill-rule="nonzero"/>
		<path id="Vector" d="M64.5 78.51C61.86 77.45 60.8 76.51 60.51 76.2C60.44 76.14 60.42 76.1 60.42 76.1L64.17 77.2C64.27 77.66 64.39 78.08 64.5 78.51Z" fill="#20233A" fill-opacity="1.000000" fill-rule="nonzero"/>
		<path id="Vector" d="M58.41 47.67C58.41 47.67 62.08 48.2 61.54 53.64C61 59.07 57.76 58.64 57.54 58.63C57.33 58.63 54.29 58.75 54.03 52.12C54.03 52.12 53.9 47.21 58.41 47.67Z" fill="#E7A585" fill-opacity="1.000000" fill-rule="nonzero"/>
		<path id="Vector" d="M60.04 57.67C60.04 57.67 59.81 60.5 60.35 61.34C60.9 62.19 59.89 63.34 57.81 62.95C55.73 62.55 55.85 61.37 55.85 61.37C55.85 61.37 56.43 59.63 56.26 58.23C56.09 56.84 60.04 57.67 60.04 57.67Z" fill="#E7A585" fill-opacity="1.000000" fill-rule="nonzero"/>
		<path id="Vector" d="M57.98 49.64C57.98 49.64 59.7 51.45 60.5 52.37C61.3 53.28 61.39 55.05 61.39 55.05C61.39 55.05 62.73 53.4 62.17 51.49C61.61 49.58 60.28 45.85 56.91 47C53.55 48.14 53.42 53.18 53.82 55.67C53.82 55.67 55.33 50.16 57.98 49.64Z" fill="#454240" fill-opacity="1.000000" fill-rule="nonzero"/>
		<path id="Vector" d="M56.54 58.39C56.54 58.39 58.1 59.13 59.63 58.03C59.63 58.03 59.2 58.91 58.08 59.04C56.96 59.16 56.54 58.39 56.54 58.39Z" fill="#A4775F" fill-opacity="1.000000" fill-rule="nonzero"/>
		<path id="Vector" d="M56 59.37C56 59.37 50.94 63.88 52.26 66.69C53.38 69.09 57.35 67.62 56.69 65.1C56.04 62.59 56 59.37 56 59.37Z" fill="#454240" fill-opacity="1.000000" fill-rule="nonzero"/>
		<path id="Vector" d="M57.38 72.03C57.38 72.2 57.24 72.34 57.06 72.34C56.89 72.34 56.75 72.2 56.75 72.03C56.75 71.85 56.89 71.71 57.06 71.71C57.24 71.71 57.38 71.85 57.38 72.03Z" fill="#48484D" fill-opacity="1.000000" fill-rule="nonzero"/>
		<path id="Vector" d="M79.8 133.76C79.8 133.76 78.75 135.33 77.28 135.67C75.82 136 74.37 136.54 74.36 137.47C74.35 138.39 78.6 138.95 80.28 138.01C82.78 136.62 83.04 137.04 83.31 136.34C83.59 135.65 82.98 133.78 83 133.56C83.02 133.29 79.8 133.76 79.8 133.76Z" fill="#353A3D" fill-opacity="1.000000" fill-rule="nonzero"/>
		<path id="Vector" d="M79.96 132.99C79.96 132.99 79.77 133.74 79.79 133.76C79.82 133.78 83.1 134.17 83 133.56C82.92 133.07 82.8 132.53 82.8 132.53L79.96 132.99Z" fill="#82807F" fill-opacity="1.000000" fill-rule="nonzero"/>
		<path id="Vector" d="M90.82 133.66C90.82 133.66 90.07 135.16 88.8 135.67C87.44 136.21 86.34 136.84 86.37 137.74C86.4 138.64 89.7 139.56 92.1 137.82C93.62 136.73 94.1 136.73 94.34 136.04C94.59 135.35 93.92 133.56 93.93 133.34C93.94 133.07 90.82 133.66 90.82 133.66Z" fill="#353A3D" fill-opacity="1.000000" fill-rule="nonzero"/>
		<path id="Vector" d="M90.78 132.88C90.78 132.88 90.79 133.64 90.82 133.66C90.85 133.67 94.01 133.93 93.93 133.34C93.87 132.87 93.62 132.3 93.62 132.3L90.78 132.88Z" fill="#82807F" fill-opacity="1.000000" fill-rule="nonzero"/>
		<path id="Vector" d="M79.17 87.14C79.17 87.14 76.23 100.13 75.56 104.08C74.99 107.45 74.53 110.96 74.81 113.39C75.15 116.39 79.4 131.99 79.22 132.87C79.05 133.75 83.68 133.01 83.68 133.01C83.68 133.01 80.44 115.62 81.09 112.38C81.57 109.98 85.76 94.05 86.4 94.87C87.05 95.69 87.84 109.9 88.32 112.26C88.8 114.62 90.26 133.27 90.26 133.27C90.26 133.27 93.52 133.75 94.4 133.01C94.4 133.01 94.8 117.09 94.49 112.67C94.38 110.98 96.46 92.45 93.79 84.99C92.37 81.05 79.17 87.14 79.17 87.14Z" fill="#2D3132" fill-opacity="1.000000" fill-rule="nonzero"/>
		<path id="Vector" d="M66.37 75.34C68.47 75.04 75.06 77.97 75.66 77.74C76.08 77.59 77.04 74.44 77.73 72.05C78.14 70.64 78.45 69.49 78.5 69.4L78.5 69.39C78.49 69.46 78.39 70.54 78.52 71.96C78.53 72.05 78.54 72.14 78.55 72.24C78.55 72.26 78.56 72.29 78.56 72.31C78.62 72.82 78.71 73.36 78.86 73.91C79.06 74.72 79.16 75.78 79.2 76.91L79.2 76.91C79.2 76.92 79.2 76.93 79.2 76.94C79.2 76.96 79.2 76.99 79.2 77.02C79.2 77.03 79.21 77.04 79.21 77.05C79.27 79.09 79.12 81.3 79.07 82.47C78.97 84.29 79.57 85.11 79.59 85.13L80.22 85.04L80.68 84.98L80.68 84.97L81.29 84.89L83.68 84.55L84.55 84.43L84.75 84.4L86.27 84.19L90.54 83.59L91.01 83.52L91.2 83.49L92.81 83.27L93.54 83.16L93.54 83.16C93.54 83.16 94.16 78.77 94.21 76.4C94.25 74.22 95.41 69.8 95.6 69.09C95.61 69.08 95.61 69.08 95.61 69.07C95.61 69.07 95.61 69.06 95.61 69.05C95.62 69.04 95.62 69.03 95.62 69.02C95.62 69.02 95.63 69.01 95.63 69.01C95.63 69.01 95.63 69 95.63 69C95.63 69 95.63 69 95.63 69C95.63 68.99 95.63 68.99 95.63 68.99C95.63 68.99 99.12 72.66 99.79 74.26C100 74.75 100.63 76.06 101.43 77.67C101.98 76.62 102.33 75.9 102.33 75.71C102.33 75.69 102.33 75.67 102.33 75.64C102.27 74.06 100.62 67.64 99.31 63.45C98.3 61.41 97.42 59.76 97.14 59.56C96.71 59.25 94.92 58.48 93.36 57.86C93.31 57.84 93.26 57.82 93.21 57.81C93.06 57.75 92.92 57.69 92.78 57.64C92.71 57.61 92.64 57.58 92.57 57.56C92.54 57.54 92.5 57.53 92.46 57.51C92.43 57.5 92.4 57.49 92.37 57.48C91.59 57.18 91 56.98 90.88 56.97C90.86 56.97 90.83 56.97 90.78 56.97C90.73 56.97 90.66 56.97 90.58 56.98C89.62 57.03 86.74 57.3 85.81 57.39C85.64 57.41 85.54 57.42 85.52 57.42C85.52 57.42 85.52 57.42 85.52 57.42C85.52 57.42 85.08 57.62 84.41 57.93L84.35 57.95C83.95 58.14 83.49 58.38 82.99 58.65C82.03 59.18 80.96 59.8 80.08 60.22C79.22 60.64 78.03 61.21 77.93 61.29L73.54 73.95L65.93 72.56L66.37 75.34Z" fill="#DDCAC3" fill-opacity="1.000000" fill-rule="nonzero"/>
		<path id="Vector" d="M79.59 85.13C79.59 85.13 79.27 85.51 79.17 87.14C79.17 87.14 92.39 85.6 93.79 84.99C93.79 84.99 93.84 83.19 93.54 83.16C93.22 83.13 79.59 85.13 79.59 85.13Z" fill="#495055" fill-opacity="1.000000" fill-rule="nonzero"/>
		<path id="Vector" d="M90.86 56.51C90.82 58.59 86.8 59.73 86.8 59.73C86.8 59.73 85.12 57.62 85.52 57.42C85.68 57.34 85.75 57.02 85.76 56.67C85.78 56.33 85.76 55.96 85.74 55.73C85.73 55.58 85.72 55.49 85.72 55.49C85.72 55.49 86.29 54.88 87.02 54.16C88.3 52.9 90.05 51.28 90.05 51.92C90.05 51.96 90.05 52 90.04 52.04C89.73 53.49 90.86 56.51 90.86 56.51Z" fill="#E7A585" fill-opacity="1.000000" fill-rule="nonzero"/>
		<path id="Vector" d="M90.52 83.48C90.52 83.48 90.81 85.3 90.84 85.78L91.45 85.66C91.45 85.66 91.28 83.73 91.18 83.41L90.52 83.48Z" fill="#353A3D" fill-opacity="1.000000" fill-rule="nonzero"/>
		<path id="Vector" d="M80.69 84.91C80.69 84.91 80.46 86.57 80.45 87.2L81.1 87.11C81.1 87.11 81.23 85.04 81.31 84.83L80.69 84.91Z" fill="#353A3D" fill-opacity="1.000000" fill-rule="nonzero"/>
		<path id="Vector" d="M89.31 53.47C89.3 53.48 89.13 53.74 88.84 54.1C88.23 54.88 87.07 56.16 85.76 56.67C85.78 56.33 85.76 55.96 85.74 55.73C85.61 55.72 85.47 55.71 85.34 55.68C85.7 55.05 86.22 54.4 86.22 54.4L87.02 54.16L89.31 53.47Z" fill="#A4775F" fill-opacity="1.000000" fill-rule="nonzero"/>
		<path id="Vector" d="M90.08 51.95C89.73 52.7 89.41 53.25 89.31 53.47C89.25 53.61 89.08 53.84 88.84 54.1C88.18 54.82 86.95 55.76 85.74 55.73C85.61 55.72 85.48 55.71 85.34 55.68C84.85 55.57 84.28 55.34 83.96 54.72C81.45 49.81 83.27 45.8 83.27 45.8C83.27 45.8 90.12 43.86 91.19 45.92C91.94 47.37 90.9 50.17 90.08 51.95Z" fill="#E7A585" fill-opacity="1.000000" fill-rule="nonzero"/>
		<path id="Vector" d="M83.27 45.8C83.27 45.8 82.63 45.76 82.47 44.55C82.32 43.36 82.63 43.03 82.63 43.03C82.63 43.03 85.46 41.84 86.48 41.69C87.49 41.54 89.99 41.39 90.57 42.06C90.57 42.06 92 41.73 92.38 44.09C93 47.84 90.29 51.48 90.29 51.48C90.29 51.48 90.31 49.03 89.77 48.71C89.23 48.39 88.77 49.16 88.77 49.16L87.66 49.35C87.66 49.35 89.34 45.73 87.33 45.6C85.32 45.46 84.42 46.01 83.27 45.8Z" fill="#434343" fill-opacity="1.000000" fill-rule="nonzero"/>
		<path id="Vector" d="M88.8 48.18C88.9 47.1 90.85 46.69 90.72 47.82C90.59 48.95 89.63 50.04 89.19 50C88.74 49.96 88.72 49 88.8 48.18Z" fill="#E7A585" fill-opacity="1.000000" fill-rule="nonzero"/>
		<path id="Vector" d="M102.33 75.71C102.33 75.68 102.33 75.66 102.33 75.64C102.29 74.06 101.52 67.74 100.21 63.55C99.57 61.51 99.43 60.09 99.18 59.92C98.76 59.61 94.97 58.49 93.37 57.86C93.31 57.84 93.26 57.82 93.21 57.8C93.07 57.74 92.92 57.68 92.78 57.63C92.71 57.6 92.64 57.58 92.58 57.55C92.54 57.54 92.5 57.52 92.47 57.51C92.44 57.5 92.41 57.49 92.38 57.47C92.37 57.48 92.37 57.48 92.37 57.48C92.22 57.64 91.48 58.49 90.59 59.75C88.94 62.11 86.78 65.93 87.11 69.46C87.21 70.6 87.34 72.22 87.56 74.05C87.58 74.21 87.6 74.36 87.62 74.52C87.68 74.94 87.74 75.37 87.8 75.81C87.84 76.07 87.88 76.33 87.92 76.59C88.36 79.33 89.74 81.2 90.96 83.43C90.97 83.45 90.98 83.47 90.99 83.49C90.99 83.5 91 83.51 91.01 83.52C91.03 83.57 91.06 83.61 91.08 83.66C91.13 83.74 91.17 83.82 91.21 83.9C91.23 83.94 91.26 83.99 91.28 84.03C91.52 84.48 91.74 84.94 91.97 85.4C92.11 85.7 92.25 86 92.39 86.3C92.4 86.33 92.42 86.36 92.43 86.39C92.43 86.39 92.66 86.92 92.95 87.59C93.05 87.83 93.17 88.1 93.28 88.37C93.36 88.55 93.44 88.74 93.52 88.92C93.58 89.07 93.65 89.23 93.71 89.37C93.85 89.7 93.97 89.98 94.06 90.18C94.12 90.33 94.16 90.43 94.17 90.46C94.6 91.51 94.9 92.33 95.04 92.71C95.09 92.86 95.12 92.94 95.12 92.94L99.35 90.61C100.15 90.2 99.73 88.04 99.43 87.19C99.18 86.49 98.83 85.73 98.43 84.96C98.27 84.64 98.1 84.31 97.92 83.99C99.25 81.68 100.59 79.29 101.44 77.67C101.99 76.62 102.33 75.89 102.33 75.71ZM95.61 69.08C95.61 69.08 95.61 69.07 95.61 69.07C95.61 69.06 95.62 69.05 95.62 69.05C95.62 69.04 95.62 69.03 95.63 69.02C95.63 69.01 95.63 69.01 95.63 69C95.63 69 95.63 69 95.63 69C95.63 69 95.63 69 95.63 69C95.63 69 97.69 72.21 97.54 75.01C97.51 75.44 97.08 76.54 96.45 77.95C96.45 77.95 96.45 77.95 96.45 77.96C96.22 78.47 95.96 79.02 95.69 79.6C95.68 79.58 95.67 79.55 95.66 79.53C95.27 78.57 95.01 77.67 95.01 76.88C95.01 76.88 95.19 70.75 95.61 69.08Z" fill="#3865A7" fill-opacity="1.000000" fill-rule="nonzero"/>
		<path id="Vector" d="M63.56 71.04L73.14 73.13L77.7 61.19C77.8 61.11 79.11 60.4 79.97 59.99C80.88 59.56 82.02 59.03 83.03 58.56C83.51 58.34 83.97 58.13 84.35 57.95L84.39 57.98C84.39 57.98 83.82 59.86 83.09 64.56L83.09 64.56C83.06 64.72 83.04 64.88 83.02 65.04C83.01 65.06 83.01 65.08 83.01 65.1C82.99 65.21 82.97 65.32 82.96 65.43C82.96 65.45 82.95 65.46 82.95 65.47C82.94 65.55 82.93 65.62 82.92 65.7C82.89 65.89 82.86 66.08 82.84 66.27C82.51 68.56 82.05 72.45 81.61 76.38L81.61 76.38C81.26 79.48 80.47 82.66 80.22 85.04C80.22 85.04 80.22 85.04 80.22 85.04C80.17 85.51 80.05 86.13 79.89 86.83C79.87 86.9 79.85 86.98 79.84 87.07C79.13 90.06 77.75 94.3 77.75 94.3L77.35 93.93L76.17 92.84C75.89 92.58 75.79 92.2 75.9 91.84C76.56 89.72 78.79 82.2 79.2 76.91C79.2 76.91 79.2 76.91 79.2 76.91C79.33 75.25 78.85 73.68 78.56 72.2C78.56 72.21 78.55 72.23 78.55 72.24C78.32 72.9 78.06 73.61 77.79 74.3C77.09 76.17 76.37 77.89 76.06 78C75.4 78.25 62.79 74.8 62.7 74.3L63.56 71.04Z" fill="#3865A7" fill-opacity="1.000000" fill-rule="nonzero"/>
		<path id="Vector" d="M91.26 62.63L89.31 63.73L90.15 64.58L87.92 76.59C87.47 73.78 87.26 71.11 87.11 69.47C86.6 64.01 92.04 57.85 92.38 57.47C92.64 57.57 92.92 57.68 93.21 57.8L91.26 62.63Z" fill="#4D6C9E" fill-opacity="1.000000" fill-rule="nonzero"/>
		<path id="Vector" d="M84.42 57.92C84.42 57.92 83.69 60.31 82.84 66.26C82.51 68.55 82.05 72.45 81.61 76.38L81.16 65.13L82.09 64.12L81.26 63.08L83.03 58.56C83.51 58.34 83.97 58.13 84.35 57.95L84.42 57.92Z" fill="#4D6C9E" fill-opacity="1.000000" fill-rule="nonzero"/>
		<path id="Vector" d="M92.48 57.5L90.86 56.51C90.86 56.51 90.81 57.4 86.8 59.72L87.94 62.94L92.48 57.5Z" fill="#F3E1D8" fill-opacity="1.000000" fill-rule="nonzero"/>
		<path id="Vector" d="M85.74 56.96C85.74 56.96 85.8 57.92 86.8 59.72L84.58 62.63L84.42 57.92L85.74 56.96Z" fill="#F3E1D8" fill-opacity="1.000000" fill-rule="nonzero"/>
		<path id="Vector" d="M86.81 59.73C86.81 59.73 87.24 61.45 87.08 61.93C87.08 61.93 86.14 62.28 85.45 61.85C85.46 61.85 85.94 60.64 86.81 59.73Z" fill="#FE5F5F" fill-opacity="1.000000" fill-rule="nonzero"/>
		<path id="Vector" d="M84.58 84.61C84.34 83.39 84.57 79.75 84.58 79.59L84.79 79.6C84.78 79.64 84.55 83.38 84.78 84.57L84.58 84.61Z" fill="#AD9F99" fill-opacity="1.000000" fill-rule="nonzero"/>
		<path id="Vector" d="M86.27 84.05C86.27 84.05 84.32 84.28 83.68 84.44L83.77 86.62L86.31 86.35L86.27 84.05Z" fill="#68737A" fill-opacity="1.000000" fill-rule="nonzero"/>
		<path id="Vector" d="M85.84 61.69C85.84 61.69 83.67 67.18 84.03 73.31C84.39 79.68 85 81.98 85 81.98L86.33 83.66L86.92 81.6C86.92 81.6 85.13 73.48 86.29 65.59C86.5 64.16 86.81 61.45 86.81 61.45L85.84 61.69Z" fill="#FE5F5F" fill-opacity="1.000000" fill-rule="nonzero"/>
		<path id="Vector" d="M92.36 87.59C92.36 87.59 91.89 88.52 91.43 88.67C90.96 88.83 90.28 89.59 90.28 89.59L93.56 91.31C93.56 91.31 94.43 89.6 94.47 88.52C94.51 87.43 92.36 87.59 92.36 87.59Z" fill="#E7A585" fill-opacity="1.000000" fill-rule="nonzero"/>
		<path id="Vector" d="M92.05 87.67L91.83 88.11C91.83 88.11 93.91 89.63 94.47 89.73L94.66 89.15L92.05 87.67Z" fill="#DDCAC3" fill-opacity="1.000000" fill-rule="nonzero"/>
		<path id="Vector" d="M91.83 87.69C91.83 87.69 93.39 88.98 94.7 89.58L99.12 81.62L96.83 77.19C96.83 77.19 91.93 86.92 91.83 87.69Z" fill="#597EB8" fill-opacity="1.000000" fill-rule="nonzero"/>
		<path id="Vector" d="M78.63 69.42C78.55 70.89 78.57 72.2 78.57 72.2C78.57 72.2 78.57 72.2 78.57 72.2C78.57 72.21 78.56 72.25 78.56 72.31C78.56 72.29 78.55 72.26 78.55 72.24C78.32 72.89 78.06 73.6 77.79 74.3C77.73 73.49 77.72 72.75 77.74 72.05C77.84 67.92 79.14 65.76 79.14 65.76C78.84 66.48 78.7 68.02 78.63 69.42Z" fill="#2F4261" fill-opacity="1.000000" fill-rule="nonzero"/>
		<path id="Vector" d="M98.43 84.96L94.89 89.24L97.93 83.99C98.1 84.31 98.27 84.64 98.43 84.96Z" fill="#2F4261" fill-opacity="1.000000" fill-rule="nonzero"/>
		<path id="Vector" d="M72.74 79.59L64.57 79.59C64.01 79.59 63.52 79.21 63.39 78.66L59.84 63.99C59.65 63.23 60.23 62.5 61.02 62.5L69.19 62.5C69.75 62.5 70.23 62.88 70.36 63.42L73.91 78.09C74.1 78.86 73.52 79.59 72.74 79.59Z" fill="#313555" fill-opacity="1.000000" fill-rule="nonzero"/>
		<path id="Vector" d="M62.74 75.51C63.14 75.14 63.91 74.93 64.57 74.49C65.23 74.05 64.68 73.59 64.68 73.59C65.36 73.36 65.29 73.05 65.2 72.84C65.08 72.55 64.34 72.63 64.34 72.63C64.34 72.63 65.01 72.48 65.28 72.36C65.55 72.24 65.46 71.77 65.04 71.61C64.62 71.46 62.91 71.89 62.91 71.89C62.91 71.89 63.19 71.75 64.03 71.32C64.88 70.9 65.06 70.51 64.56 70.33C64.22 70.2 63.54 70.47 62.23 71.35C61.25 72.01 61.33 72.1 61.33 72.1C61.33 72.1 62.26 75.96 62.74 75.51Z" fill="#E7A585" fill-opacity="1.000000" fill-rule="nonzero"/>
		<path id="Vector" d="M97.97 135.19C97.97 135.19 96.03 137.92 96.29 138.36C96.56 138.79 98.61 138.85 99.85 138.36C101.1 137.86 101.13 134.65 101.69 133.27C101.93 132.7 101.42 130.99 100.71 130.87C100 130.74 99.23 131.11 99.23 131.11C99.23 131.11 99.97 133.05 97.97 135.19Z" fill="#FE5F5F" fill-opacity="1.000000" fill-rule="nonzero"/>
		<path id="Vector" d="M99.22 131.09C99.22 131.09 98.81 132.25 98.66 133.37C98.53 134.29 97.27 136.25 97.33 136.5C97.39 136.75 98.99 136.97 99.65 136.33C100.3 135.69 100.72 133.83 100.86 132.72C101 131.68 101.17 131.17 101.17 131.17C101.17 131.17 99.84 130.4 99.22 131.09Z" fill="#E7A585" fill-opacity="1.000000" fill-rule="nonzero"/>
		<path id="Vector" d="M114.92 135.23C114.92 135.23 113.04 137.92 113.31 138.36C113.57 138.79 115.62 138.85 116.87 138.36C118.11 137.86 118.14 134.65 118.71 133.27C118.94 132.7 118.44 130.99 117.73 130.87C117.02 130.74 116.19 131.13 116.19 131.13C116.19 131.13 116.91 133.1 114.92 135.23Z" fill="#FE5F5F" fill-opacity="1.000000" fill-rule="nonzero"/>
		<path id="Vector" d="M116.19 131.13C116.19 131.13 116.04 132.4 115.8 133.3C115.57 134.2 114.29 136.25 114.35 136.5C114.41 136.74 116.01 136.97 116.66 136.33C117.32 135.69 117.82 133.84 117.88 132.72C117.94 131.6 117.73 130.87 117.73 130.87C117.73 130.87 116.81 130.45 116.19 131.13Z" fill="#E7A585" fill-opacity="1.000000" fill-rule="nonzero"/>
		<path id="Vector" d="M106.81 86.56C106.81 86.56 105.14 94.68 104.76 96.72C104.37 98.77 103.3 108.67 103.18 110.35C103.07 112.03 101.44 118.38 101.52 118.98C101.59 119.58 99.1 131.66 99.1 131.66C99.1 131.66 99.95 132.37 100.85 131.72C101.31 131.39 106.31 120.41 106.31 117.41C106.31 113.25 109.26 107.83 109.64 106.9C113.16 98.26 112.47 95.62 112.93 95.06C113.39 94.5 113.43 95.41 113.7 96.65C113.96 97.89 114.54 108.64 114.88 110C115.23 111.36 114.96 115.97 115.15 118.3C115.35 120.62 116.19 131.14 116.19 131.14C116.19 131.14 116.84 132.2 117.76 131.16C117.95 130.94 119.34 119.45 119.37 116.68C119.41 113.92 119.45 110.1 119.53 108.91C120.24 97.45 121.99 95.81 119.23 87.7C114.08 72.51 106.81 86.56 106.81 86.56Z" fill="#E7A585" fill-opacity="1.000000" fill-rule="nonzero"/>
		<path id="Vector" d="M118.03 84.29C118.03 84.29 122.79 91.25 120.74 106.05C120.74 106.05 109.45 107.66 103.4 104.2C103.4 104.2 105.9 88.93 106.81 86.56C107.72 84.19 118.03 84.29 118.03 84.29Z" fill="#FE5F5F" fill-opacity="1.000000" fill-rule="nonzero"/>
		<path id="Vector" d="M101.75 133.03L101.75 135.9L101.39 135.9L101.39 133.68L101.75 133.03Z" fill="#FE5F5F" fill-opacity="1.000000" fill-rule="nonzero"/>
		<path id="Vector" d="M118.76 133.03L118.76 135.9L118.41 135.9L118.41 133.68L118.76 133.03Z" fill="#FE5F5F" fill-opacity="1.000000" fill-rule="nonzero"/>
		<path id="Vector" d="M112.39 53.44C112.39 53.44 109.2 56.65 110.28 60.79C111.37 64.93 113.11 64.95 115.04 63.17C116.96 61.39 118.09 59.52 118.34 57.44C118.6 55.36 115.3 50.57 112.39 53.44Z" fill="#E7A585" fill-opacity="1.000000" fill-rule="nonzero"/>
		<path id="Vector" d="M111.76 67.24C111.76 67.24 112.23 66.16 112.57 64.94C112.62 64.72 112.68 64.5 112.72 64.29C112.89 63.52 112.95 62.77 112.78 62.25C112.27 60.74 115.97 61.79 115.97 61.79C115.97 61.79 115.25 65.76 115.97 67.1C116.68 68.44 111.76 67.24 111.76 67.24Z" fill="#E7A585" fill-opacity="1.000000" fill-rule="nonzero"/>
		<path id="Vector" d="M121.13 69.13C120.55 67.97 120.11 67.6 118.99 67.24C118.36 67.04 115.55 66.31 115.55 66.31L112.17 66.19C112.17 66.19 109.85 66.57 108.05 67.2C106.25 67.83 103.89 71.24 103.89 71.24C103.89 71.24 107.14 78.89 107.77 81.09C108.39 83.29 107.98 86.69 107.98 86.69C111.88 88.81 118.14 86.48 118.14 86.48C117.66 84.76 117.65 82.76 117.89 81.34C117.92 81.17 117.96 81.01 117.99 80.86C118.03 80.72 118.07 80.53 118.13 80.31C118.13 80.3 118.13 80.29 118.13 80.28C120.62 80.53 122.94 80.64 123 80.14C123.28 77.89 121.93 70.73 121.13 69.13ZM119.41 77.86C119.31 77.85 119.1 77.84 118.87 77.83C119.14 77.06 119.45 76.37 119.45 76.37C119.63 76.86 120.3 77.99 119.41 77.86Z" fill="#EBD9D2" fill-opacity="1.000000" fill-rule="nonzero"/>
		<path id="Vector" d="M113.43 55.75C113.43 55.75 114.95 58.52 115.9 59.52C116.84 60.51 116.73 61.3 116.73 61.3C116.73 61.3 120.42 56.74 117.79 53.99C115.16 51.24 111.76 52.35 110.77 54.75C109.78 57.16 110.14 60.1 110.14 60.1C110.14 60.1 110.17 57.28 113.43 55.75Z" fill="#D28853" fill-opacity="1.000000" fill-rule="nonzero"/>
		<path id="Vector" d="M114.43 52.84C114.43 52.84 114.06 50.81 117.24 50.01C120.43 49.2 121.86 52.87 121.46 55.11C121.07 57.35 118.35 63.02 119.83 63.76C121.3 64.5 121.88 62.91 121.88 62.91C121.88 62.91 121.42 65.7 119.37 65.05C117.31 64.41 117.59 59.87 117.9 58.06C118.21 56.25 114.43 52.84 114.43 52.84Z" fill="#D28853" fill-opacity="1.000000" fill-rule="nonzero"/>
		<path id="Vector" d="M115.46 62.77C115.44 62.8 114.64 64.65 112.57 64.94C112.62 64.72 112.68 64.5 112.72 64.29C112.72 64.29 113.86 64.52 115.46 62.77Z" fill="#A4775F" fill-opacity="1.000000" fill-rule="nonzero"/>
		<path id="Vector" d="M119.41 76.4C119.41 76.4 119.26 76.72 118.84 77.98C118.42 74.43 118.64 72.59 118.64 72.59C118.68 74.49 119.41 76.4 119.41 76.4Z" fill="#CFBDB7" fill-opacity="1.000000" fill-rule="nonzero"/>
		<path id="Vector" d="M114.93 52.42C114.93 52.42 117.19 52.85 118.31 54.69C118.31 54.69 118.08 53.03 116.96 52.55C115.83 52.06 114.93 52.42 114.93 52.42Z" fill="#EBD9D2" fill-opacity="1.000000" fill-rule="nonzero"/>
		<path id="Vector" d="M118.13 80.31C118.07 80.53 118.03 80.72 117.99 80.86C117.95 81.01 117.92 81.17 117.89 81.34C116.5 80.58 115.49 79.98 115.49 79.98C115.87 80.06 118.13 80.31 118.13 80.31Z" fill="#CFBDB7" fill-opacity="1.000000" fill-rule="nonzero"/>
		<path id="Vector" d="M115.74 66.36L111.76 69.6L112.17 66.19C112.17 66.19 114.49 65.69 115.74 66.36Z" fill="#E7A585" fill-opacity="1.000000" fill-rule="nonzero"/>
		<path id="Vector" d="M112.91 69.05L111.76 69.6L115.67 65.73L112.91 69.05Z" fill="#D5C4BD" fill-opacity="1.000000" fill-rule="nonzero"/>
		<path id="Vector" d="M118.36 80.03C117.81 82.3 119.84 87.4 119.84 87.4L115.82 88.66C115.25 88.84 114.64 88.49 114.51 87.89C113.98 85.4 112.72 79.24 112.57 75.82C112.38 71.46 115.55 66.31 115.55 66.31C121.19 67.28 119.64 75.82 119.64 75.82C119.64 75.82 119.44 76.36 119.16 77.2C119.09 77.41 119.02 77.64 118.95 77.89C118.75 78.52 118.55 79.25 118.36 80.03Z" fill="#7099D8" fill-opacity="1.000000" fill-rule="nonzero"/>
		<path id="Vector" d="M111.77 66.37L111.84 66.19C111.84 66.19 108.95 66.63 107.49 67.36C106.02 68.1 103.21 71.89 103.21 71.89L106.88 76.75C106.89 80.48 106.28 87.12 106.28 87.12L107.96 88.09C108.41 88.35 108.98 88.03 108.99 87.51C109.04 84.98 109.15 78.99 109.21 76.08C109.29 72.35 111.95 66.31 111.95 66.31C111.89 66.33 111.83 66.35 111.77 66.37Z" fill="#7099D8" fill-opacity="1.000000" fill-rule="nonzero"/>
		<path id="Vector" d="M106.54 83.88C106.54 83.88 109.31 83.99 109.74 83.88C110.17 83.77 113.05 82.52 113.22 81.29C113.39 80.06 106.54 82.4 106.54 82.4L106.54 83.88Z" fill="#E7A585" fill-opacity="1.000000" fill-rule="nonzero"/>
		<path id="Vector" d="M115.13 80.03L103.89 78.71L108.97 82.85L115.13 80.03Z" fill="#B5A5A0" fill-opacity="1.000000" fill-rule="nonzero"/>
		<path id="Vector" d="M108.97 82.85L115.13 80.74L115.13 80.03L108.76 82.07L108.97 82.85Z" fill="#EBD9D2" fill-opacity="1.000000" fill-rule="nonzero"/>
		<path id="Vector" d="M111.87 77.96C111.87 77.96 110.94 77.96 110.42 77.85C110.01 77.77 109.01 77.88 108.76 78.11C108.5 78.34 107.69 79.92 107.53 80.01C107.38 80.11 107.61 80.33 107.88 80.22C107.88 80.22 108.13 80.91 108.74 80.65C109.35 80.39 109.77 79.83 110.09 79.73C110.41 79.63 112.27 79.13 112.27 79.13C112.27 79.13 112.35 77.79 111.87 77.96Z" fill="#E7A585" fill-opacity="1.000000" fill-rule="nonzero"/>
		<path id="Vector" d="M112.38 65.56L110.24 68.95L109.21 69.6L111.62 66.22L112.38 65.56Z" fill="#F8E5DD" fill-opacity="1.000000" fill-rule="nonzero"/>
		<path id="Vector" d="M110.24 68.95L111.76 69.6L112.17 66.19L112.38 65.56L110.24 68.95Z" fill="#D5C4BD" fill-opacity="1.000000" fill-rule="nonzero"/>
		<path id="Vector" d="M106.87 82.29C106.87 82.29 106.76 83.73 106.87 84.03C106.87 84.03 99.94 83.33 99.29 82.36C98.64 81.39 98.67 80.21 98.67 80.21L106.87 82.29Z" fill="#F09E4A" fill-opacity="1.000000" fill-rule="nonzero"/>
		<path id="Vector" d="M108.97 82.85L105.69 70.64L93.22 69.32L96.63 80.56L108.97 82.85Z" fill="#EBD9D2" fill-opacity="1.000000" fill-rule="nonzero"/>
		<path id="Vector" d="M115.67 65.73L112.91 69.05L114.42 70.4L116.05 66.42L115.67 65.73Z" fill="#F8E5DD" fill-opacity="1.000000" fill-rule="nonzero"/>
		<path id="Vector" d="M119.26 76.92L119.16 77.2C119.09 77.41 119.02 77.64 118.95 77.89C118.41 78.06 113.81 77.72 113.81 77.72C113.81 77.72 117.66 76.81 119.26 76.92Z" fill="#3865A7" fill-opacity="1.000000" fill-rule="nonzero"/>
		<path id="Vector" d="M118.99 77.8C118.25 77.74 117.03 77.67 116.04 77.66C114.49 77.65 111.84 77.83 111.84 77.83L112.16 79.48C112.16 79.48 116.85 80.25 119.41 80.43C119.41 80.43 122.79 80.82 123.04 80.31C123.29 79.81 122.96 76.56 122.41 73.64C121.86 70.72 121.29 69.04 120.62 68.14C119.95 67.24 116.4 66.53 116.4 66.53L119.41 76.4C119.41 76.4 119.84 77.28 119.82 77.66C119.81 77.78 119.73 77.83 119.62 77.85C119.55 77.85 119.38 77.83 119.15 77.81L118.99 77.8Z" fill="#7099D8" fill-opacity="1.000000" fill-rule="nonzero"/>
	</g>
</svg>
