<svg width="204.102661" height="189.717041" viewBox="0 0 204.103 189.717" fill="none" xmlns="http://www.w3.org/2000/svg" xmlns:xlink="http://www.w3.org/1999/xlink">
	<desc>
			Created with Pixso.
	</desc>
	<defs>
		<clipPath id="clip1_127">
			<rect id="2801274 1" width="144.000000" height="144.000000" transform="translate(27.000000 25.000000)" fill="white" fill-opacity="0"/>
		</clipPath>
	</defs>
	<path id="Vector 5" d="M16.6 101.28C-3.68 60.2 48.42 23.91 71.07 42.04C119.2 80.56 119.16 24.62 145.28 19.68C171.4 14.75 190.58 79.71 168.7 117.95C134.56 177.61 111.72 166.52 89.88 147.04C49.45 110.98 36.87 142.36 16.6 101.28Z" fill="#F1F2F2" fill-opacity="1.000000" fill-rule="evenodd"/>
	<rect id="2801274 1" width="144.000000" height="144.000000" transform="translate(27.000000 25.000000)" fill="#FFFFFF" fill-opacity="0"/>
	<g clip-path="url(#clip1_127)">
		<g opacity="0.610000">
			<g opacity="0.610000">
				<g opacity="0.610000">
					<g opacity="0.610000">
						<path id="Vector" d="M126.5 108.38L130.39 107.37C131.19 107.16 132.01 107.64 132.22 108.44L133.01 111.45C134.12 111.46 135.22 111.61 136.29 111.9L137.87 109.22C138.28 108.51 139.21 108.27 139.92 108.69L143.39 110.72C144.1 111.13 144.34 112.06 143.92 112.77L142.35 115.45C143.13 116.25 143.81 117.14 144.36 118.09L147.36 117.31C148.17 117.1 148.99 117.58 149.2 118.38L150.21 122.27C150.42 123.07 149.94 123.89 149.14 124.1L146.13 124.89C146.12 126 145.97 127.1 145.68 128.17L148.36 129.75C149.07 130.16 149.31 131.09 148.89 131.8L146.86 135.27C146.45 135.98 145.52 136.22 144.81 135.8L142.13 134.23C141.33 135.01 140.44 135.69 139.49 136.24L140.27 139.25C140.48 140.05 140 140.87 139.2 141.08L135.31 142.09C134.51 142.3 133.69 141.82 133.48 141.02L132.69 138.01C131.58 138 130.48 137.85 129.41 137.56L127.84 140.24C127.42 140.95 126.5 141.19 125.78 140.77L122.31 138.74C121.6 138.33 121.36 137.4 121.78 136.69L123.35 134.01C122.57 133.21 121.9 132.33 121.35 131.37L118.34 132.15C117.54 132.36 116.72 131.88 116.51 131.07L115.49 127.19C115.28 126.39 115.77 125.57 116.57 125.35L119.57 124.57C119.59 123.46 119.74 122.36 120.03 121.29L117.35 119.71C116.63 119.3 116.39 118.37 116.81 117.66L118.84 114.19C119.26 113.48 120.18 113.24 120.89 113.66L123.58 115.23C124.37 114.45 125.26 113.77 126.22 113.22L125.43 110.21C125.22 109.41 125.7 108.59 126.5 108.38ZM136.62 112.71L136.36 112.63C135.18 112.29 133.97 112.12 132.75 112.13L132.48 112.13L131.56 108.61C131.45 108.18 131 107.91 130.56 108.03L126.68 109.05C126.24 109.16 125.98 109.61 126.09 110.04L127.01 113.56L126.78 113.69C125.71 114.28 124.73 115.02 123.87 115.89L123.68 116.08L120.54 114.25C120.15 114.02 119.65 114.15 119.42 114.54L117.39 118.01C117.16 118.4 117.29 118.9 117.68 119.13L120.82 120.97L120.75 121.22C120.41 122.4 120.24 123.62 120.25 124.84L120.25 125.1L116.73 126.02C116.3 126.14 116.03 126.58 116.15 127.02L117.17 130.91C117.28 131.35 117.73 131.61 118.16 131.5L121.68 130.58L121.81 130.81C122.4 131.88 123.14 132.86 124.01 133.72L124.2 133.9L122.36 137.04C122.13 137.43 122.26 137.93 122.65 138.16L126.12 140.19C126.51 140.42 127.01 140.29 127.24 139.9L129.08 136.76L129.34 136.83C130.51 137.18 131.73 137.35 132.95 137.34L133.22 137.33L134.13 140.85C134.25 141.29 134.7 141.55 135.13 141.44L139.02 140.42C139.46 140.31 139.72 139.86 139.61 139.42L138.69 135.9L138.92 135.77C139.99 135.19 140.97 134.45 141.83 133.57L142.01 133.38L145.15 135.22C145.54 135.45 146.05 135.32 146.27 134.92L148.3 131.46C148.53 131.07 148.4 130.56 148.01 130.34L144.87 128.5L144.95 128.24C145.29 127.06 145.46 125.85 145.45 124.63L145.44 124.36L148.96 123.44C149.4 123.33 149.66 122.88 149.55 122.44L148.53 118.56C148.42 118.12 147.97 117.86 147.53 117.97L144.01 118.89L143.88 118.66C143.3 117.59 142.56 116.61 141.68 115.75L141.49 115.56L143.33 112.42C143.55 112.03 143.42 111.53 143.03 111.3L139.57 109.27C139.18 109.05 138.67 109.18 138.45 109.57L136.62 112.71ZM130.45 115.54C135.51 114.22 140.71 117.27 142.03 122.33C143.36 127.4 140.31 132.6 135.25 133.92C130.18 135.24 124.98 132.19 123.66 127.13C122.34 122.06 125.38 116.86 130.45 115.54ZM135.08 133.26C139.78 132.03 142.6 127.21 141.38 122.5C140.15 117.8 135.33 114.98 130.62 116.2C125.92 117.43 123.1 122.25 124.32 126.96C125.55 131.66 130.37 134.48 135.08 133.26Z" fill="#FFFFFF" fill-opacity="1.000000" fill-rule="nonzero"/>
					</g>
				</g>
			</g>
			<g opacity="0.610000">
				<g opacity="0.610000">
					<g opacity="0.610000">
						<path id="Vector" d="M51.34 79.05L55.23 78.03C56.03 77.82 56.85 78.3 57.06 79.1L57.84 82.11C58.95 82.12 60.05 82.28 61.13 82.57L62.7 79.89C63.12 79.17 64.04 78.93 64.75 79.35L68.22 81.38C68.94 81.8 69.18 82.72 68.76 83.43L67.19 86.11C67.97 86.91 68.64 87.8 69.19 88.76L72.2 87.97C73 87.76 73.82 88.25 74.03 89.05L75.05 92.93C75.26 93.73 74.77 94.56 73.97 94.77L70.97 95.55C70.96 96.66 70.8 97.76 70.51 98.84L73.19 100.41C73.91 100.83 74.15 101.75 73.73 102.46L71.7 105.93C71.28 106.65 70.36 106.89 69.65 106.47L66.96 104.9C66.17 105.68 65.28 106.35 64.32 106.9L65.11 109.91C65.32 110.71 64.83 111.53 64.03 111.74L60.14 112.76C59.34 112.97 58.52 112.48 58.31 111.68L57.53 108.68C56.42 108.67 55.31 108.51 54.24 108.22L52.67 110.9C52.25 111.62 51.33 111.86 50.62 111.44L47.15 109.41C46.44 108.99 46.19 108.07 46.61 107.35L48.19 104.67C47.41 103.88 46.73 102.99 46.18 102.03L43.18 102.81C42.38 103.02 41.55 102.54 41.35 101.74L40.33 97.85C40.12 97.05 40.6 96.23 41.4 96.02L44.41 95.24C44.42 94.13 44.57 93.02 44.86 91.95L42.18 90.38C41.47 89.96 41.23 89.04 41.65 88.32L43.68 84.86C44.1 84.14 45.02 83.9 45.73 84.32L48.41 85.89C49.21 85.11 50.1 84.44 51.05 83.89L50.27 80.88C50.06 80.08 50.54 79.25 51.34 79.05ZM61.45 83.37L61.2 83.29C60.02 82.95 58.8 82.78 57.58 82.79L57.32 82.79L56.4 79.27C56.28 78.84 55.84 78.57 55.4 78.69L51.51 79.71C51.07 79.82 50.81 80.27 50.93 80.71L51.85 84.23L51.61 84.35C50.54 84.94 49.57 85.68 48.7 86.56L48.52 86.75L45.38 84.91C44.99 84.68 44.49 84.81 44.26 85.2L42.23 88.67C42 89.06 42.13 89.56 42.52 89.79L45.66 91.63L45.59 91.89C45.24 93.06 45.07 94.28 45.08 95.5L45.09 95.77L41.57 96.68C41.13 96.8 40.87 97.25 40.99 97.68L42 101.57C42.12 102.01 42.56 102.27 43 102.16L46.52 101.24L46.65 101.47C47.23 102.54 47.97 103.52 48.85 104.38L49.04 104.56L47.2 107.7C46.97 108.09 47.1 108.6 47.49 108.82L50.96 110.85C51.35 111.08 51.85 110.95 52.08 110.56L53.92 107.42L54.17 107.5C55.35 107.84 56.57 108.01 57.79 108L58.05 107.99L58.97 111.51C59.09 111.95 59.53 112.21 59.97 112.1L63.86 111.08C64.3 110.97 64.56 110.52 64.44 110.08L63.53 106.56L63.76 106.44C64.83 105.85 65.81 105.11 66.66 104.23L66.85 104.04L69.99 105.88C70.38 106.11 70.88 105.98 71.11 105.59L73.14 102.12C73.37 101.73 73.24 101.23 72.85 101L69.71 99.16L69.78 98.9C70.13 97.72 70.3 96.51 70.28 95.29L70.28 95.02L73.8 94.1C74.24 93.99 74.5 93.54 74.39 93.1L73.37 89.22C73.25 88.78 72.81 88.52 72.37 88.63L68.85 89.55L68.72 89.32C68.14 88.25 67.4 87.27 66.52 86.41L66.33 86.22L68.17 83.08C68.4 82.7 68.27 82.19 67.87 81.96L64.41 79.93C64.02 79.71 63.51 79.84 63.29 80.23L61.45 83.37ZM55.29 86.2C60.35 84.88 65.55 87.93 66.87 92.99C68.19 98.06 65.15 103.26 60.08 104.58C55.02 105.9 49.82 102.86 48.49 97.79C47.17 92.72 50.22 87.53 55.29 86.2ZM59.91 103.92C64.61 102.69 67.44 97.87 66.21 93.16C64.99 88.46 60.16 85.64 55.46 86.86C50.76 88.09 47.93 92.91 49.16 97.62C50.39 102.32 55.21 105.15 59.91 103.92Z" fill="#FFFFFF" fill-opacity="1.000000" fill-rule="nonzero"/>
					</g>
				</g>
			</g>
			<g opacity="0.610000">
				<g opacity="0.610000">
					<path id="Vector" d="M129.49 97.5L131.35 97.96C131.36 98.69 131.47 99.39 131.67 100.07L130.04 101.06C129.73 101.25 129.62 101.65 129.81 101.96L131 103.92C131.19 104.23 131.59 104.33 131.9 104.14L133.54 103.15C134.04 103.64 134.62 104.07 135.25 104.41L134.8 106.27C134.71 106.62 134.93 106.98 135.28 107.06L137.5 107.61C137.85 107.69 138.21 107.48 138.3 107.12L138.75 105.27C139.48 105.26 140.19 105.15 140.86 104.94L141.85 106.58C142.04 106.89 142.44 106.99 142.75 106.8L144.71 105.62C145.02 105.44 145.12 105.03 144.93 104.72L143.94 103.08C144.43 102.58 144.86 102 145.2 101.36L147.06 101.82C147.41 101.91 147.77 101.69 147.85 101.34L148.4 99.12C148.49 98.77 148.27 98.41 147.92 98.32L146.06 97.86C146.05 97.14 145.94 96.43 145.74 95.76L147.37 94.77C147.69 94.58 147.78 94.18 147.6 93.86L146.41 91.91C146.22 91.6 145.82 91.5 145.51 91.69L143.87 92.68C143.37 92.19 142.79 91.76 142.16 91.42L142.61 89.56C142.7 89.21 142.48 88.85 142.13 88.76L139.91 88.22C139.56 88.13 139.2 88.35 139.11 88.7L138.66 90.56C137.93 90.56 137.22 90.68 136.55 90.88L135.56 89.25C135.37 88.93 134.97 88.83 134.66 89.02L132.7 90.2C132.39 90.39 132.29 90.8 132.48 91.11L133.47 92.75C132.98 93.25 132.55 93.82 132.21 94.46L130.35 94.01C130 93.92 129.64 94.14 129.56 94.49L129.01 96.71C128.92 97.06 129.14 97.42 129.49 97.5ZM139.94 92.87C142.73 93.55 144.44 96.37 143.75 99.16C143.07 101.94 140.25 103.65 137.46 102.97C134.68 102.28 132.97 99.46 133.65 96.68C134.34 93.88 137.16 92.18 139.94 92.87Z" fill="#FFFFFF" fill-opacity="1.000000" fill-rule="nonzero"/>
				</g>
			</g>
		</g>
		<path id="Vector" d="M116.11 131.75L85 145.16C82.41 146.28 79.4 145.08 78.28 142.48L49.69 76.17C48.57 73.57 49.77 70.56 52.37 69.44L83.47 56.03C86.07 54.91 89.08 56.11 90.2 58.71L118.79 125.02C119.9 127.62 118.71 130.63 116.11 131.75Z" fill="#292930" fill-opacity="1.000000" fill-rule="nonzero"/>
		<path id="Vector" d="M112.24 129.36L85.75 140.78C83.16 141.9 80.14 140.71 79.02 138.11L52.9 77.49C51.78 74.9 52.98 71.89 55.57 70.77L82.07 59.35C84.66 58.23 87.67 59.43 88.79 62.02L114.92 122.64C116.04 125.23 114.84 128.24 112.24 129.36Z" fill="#FFFFFF" fill-opacity="1.000000" fill-rule="nonzero"/>
		<path id="Vector" d="M111.5 127.64L85.01 139.06C82.41 140.18 79.45 139.1 78.39 136.64L53.71 79.38C52.65 76.93 53.9 74.04 56.5 72.92L82.99 61.5C85.58 60.38 88.55 61.46 89.6 63.91L114.29 121.17C115.35 123.62 114.1 126.52 111.5 127.64Z" fill="#C0E4FF" fill-opacity="1.000000" fill-rule="nonzero"/>
		<path id="Vector" d="M78.65 65.14L62.92 71.92C61.92 72.35 60.75 71.88 60.32 70.88L59.42 68.92L78.79 60.45L79.69 62.53C80.12 63.54 79.66 64.7 78.65 65.14Z" fill="#292930" fill-opacity="1.000000" fill-rule="nonzero"/>
		<path id="Vector" d="M64.55 69.8C64.15 69.8 63.77 69.57 63.61 69.18C63.38 68.66 63.62 68.06 64.14 67.83C64.66 67.61 65.27 67.85 65.49 68.37C65.72 68.89 65.48 69.5 64.95 69.72C64.82 69.78 64.69 69.8 64.55 69.8ZM64.55 68.04C64.45 68.04 64.35 68.06 64.26 68.1C63.88 68.26 63.71 68.7 63.87 69.07C64.03 69.44 64.47 69.62 64.84 69.46C65.22 69.3 65.39 68.86 65.23 68.48C65.11 68.21 64.84 68.04 64.55 68.04Z" fill="#FFFFFF" fill-opacity="1.000000" fill-rule="nonzero"/>
		<path id="Vector" d="M67.64 68.2C67.33 68.2 67.03 68.02 66.9 67.71C66.82 67.52 66.81 67.3 66.89 67.1C66.97 66.9 67.13 66.74 67.32 66.65L74.85 63.41C75.05 63.32 75.27 63.32 75.47 63.4C75.67 63.48 75.83 63.63 75.91 63.83C76.09 64.24 75.9 64.71 75.49 64.89L67.96 68.13C67.86 68.18 67.75 68.2 67.64 68.2ZM75.17 63.63C75.1 63.63 75.03 63.64 74.96 63.67L67.43 66.92C67.17 67.03 67.05 67.34 67.16 67.6C67.28 67.86 67.58 67.98 67.84 67.87L75.37 64.62C75.64 64.51 75.76 64.21 75.64 63.94C75.59 63.82 75.49 63.72 75.36 63.67C75.3 63.64 75.23 63.63 75.17 63.63Z" fill="#FFFFFF" fill-opacity="1.000000" fill-rule="nonzero"/>
		<g opacity="0.180000">
			<path id="Vector" d="M90.31 65.55L61.74 98.01L65.17 105.98L92.95 71.67L90.31 65.55Z" fill="#FFFFFF" fill-opacity="1.000000" fill-rule="nonzero"/>
		</g>
		<g opacity="0.100000">
			<path id="Vector" d="M94.92 76.39L68.63 114.14L72.07 122.11L97.67 82.76L94.92 76.39Z" fill="#FFFFFF" fill-opacity="1.000000" fill-rule="nonzero"/>
		</g>
		<path id="Vector" d="M107.43 43.08C114.27 45.21 118.07 52.54 115.92 59.46C113.77 66.38 106.48 70.27 99.64 68.14C92.8 66.02 89 58.68 91.15 51.76C93.3 44.84 100.59 40.96 107.43 43.08Z" fill="#3A93FB" fill-opacity="1.000000" fill-rule="evenodd"/>
		<path id="Vector" d="M106.75 41.51C113.59 43.64 117.39 50.97 115.23 57.89C113.08 64.81 105.79 68.7 98.95 66.57C92.11 64.45 88.31 57.11 90.47 50.19C92.62 43.27 99.91 39.39 106.75 41.51Z" fill="#3865A7" fill-opacity="1.000000" fill-rule="evenodd"/>
		<g opacity="0.930000">
			<path id="Vector" d="M105.84 44.41C111.1 46.05 114.02 51.68 112.37 57C110.71 62.32 105.11 65.31 99.86 63.68C94.6 62.04 91.68 56.41 93.33 51.09C94.98 45.77 100.59 42.78 105.84 44.41Z" fill="#FFFFFF" fill-opacity="1.000000" fill-rule="evenodd"/>
		</g>
		<path id="Vector" d="M103.07 53.35C102.81 53.27 102.67 53 102.75 52.74L104.49 47.13C104.57 46.87 104.85 46.73 105.1 46.81C105.36 46.89 105.5 47.16 105.42 47.42L103.67 53.03C103.59 53.29 103.32 53.43 103.07 53.35Z" fill="#9FBFFF" fill-opacity="1.000000" fill-rule="nonzero"/>
		<path id="Vector" d="M102.83 54.21C102.91 53.95 103.18 53.81 103.43 53.89L107.76 55.24C108.02 55.32 108.16 55.59 108.08 55.84C108 56.1 107.73 56.24 107.47 56.16L103.14 54.81C102.89 54.73 102.75 54.46 102.83 54.21Z" fill="#9FBFFF" fill-opacity="1.000000" fill-rule="nonzero"/>
		<path id="Vector" d="M104.23 54.47C103.99 55.25 103.18 55.68 102.41 55.44C101.65 55.2 101.22 54.39 101.46 53.61C101.7 52.84 102.52 52.4 103.28 52.64C104.05 52.88 104.47 53.7 104.23 54.47Z" fill="#1B1B25" fill-opacity="1.000000" fill-rule="nonzero"/>
		<path id="Vector" d="M120.77 121.72L96.36 113.25C94.11 112.47 92.91 110.01 93.69 107.76L114.01 49.17C114.79 46.92 117.25 45.72 119.5 46.51L143.92 54.97C146.17 55.75 147.37 58.21 146.58 60.47L126.27 119.06C125.49 121.31 123.03 122.5 120.77 121.72Z" fill="#101011" fill-opacity="1.000000" fill-rule="nonzero"/>
		<path id="Vector" d="M120.37 120.58L97.39 112.61C95.27 111.87 94.16 109.49 94.93 107.29L114.76 50.09C115.53 47.89 117.87 46.7 119.99 47.43L142.97 55.4C145.09 56.14 146.19 58.52 145.43 60.72L125.59 117.92C124.83 120.12 122.49 121.31 120.37 120.58Z" fill="#282830" fill-opacity="1.000000" fill-rule="nonzero"/>
		<path id="Vector" d="M96.91 104.77L114.54 53.93L143.27 63.89L125.64 114.73L96.91 104.77Z" fill="#FFFFFF" fill-opacity="1.000000" fill-rule="evenodd"/>
		<g opacity="0.890000">
			<path id="Vector" d="M130.77 53.98C130.71 53.98 130.65 53.97 130.6 53.95C130.47 53.9 130.36 53.81 130.3 53.69C130.24 53.56 130.23 53.42 130.28 53.29C130.32 53.16 130.42 53.05 130.54 52.99C130.67 52.93 130.81 52.92 130.94 52.97C131.07 53.01 131.18 53.11 131.24 53.23C131.3 53.36 131.31 53.5 131.26 53.63C131.21 53.76 131.12 53.87 131 53.93C130.92 53.96 130.85 53.98 130.77 53.98ZM130.77 53.23C130.73 53.23 130.7 53.24 130.67 53.25C130.61 53.28 130.57 53.33 130.55 53.38C130.53 53.44 130.53 53.5 130.56 53.56C130.59 53.61 130.64 53.66 130.69 53.68C130.75 53.7 130.81 53.69 130.87 53.67C130.92 53.64 130.97 53.59 130.99 53.53C131.01 53.48 131 53.41 130.98 53.36C130.95 53.3 130.9 53.26 130.84 53.24C130.82 53.23 130.79 53.23 130.77 53.23Z" fill="#FFFFFF" fill-opacity="1.000000" fill-rule="nonzero"/>
		</g>
		<g opacity="0.890000">
			<path id="Vector" d="M132.87 56.57C132.83 56.57 132.78 56.57 132.74 56.55L127.3 54.66C127.1 54.59 126.99 54.37 127.06 54.16C127.09 54.06 127.17 53.98 127.26 53.94C127.36 53.89 127.46 53.88 127.56 53.92L133 55.81C133.1 55.84 133.18 55.91 133.22 56.01C133.27 56.1 133.28 56.21 133.24 56.31C133.19 56.47 133.03 56.57 132.87 56.57ZM132.84 56.28C132.89 56.3 132.95 56.27 132.97 56.21C132.98 56.19 132.98 56.16 132.97 56.13C132.95 56.1 132.93 56.08 132.91 56.08L127.46 54.19C127.44 54.18 127.41 54.18 127.38 54.2C127.36 54.21 127.34 54.23 127.33 54.26C127.31 54.31 127.34 54.37 127.4 54.39L132.84 56.28Z" fill="#FFFFFF" fill-opacity="1.000000" fill-rule="nonzero"/>
		</g>
		<g opacity="0.410000">
			<g opacity="0.410000">
				<g opacity="0.810000">
					<g opacity="0.810000">
						<path id="Vector" d="M99.36 103.46L115.84 55.93L141.53 64.84L125.05 112.37L99.36 103.46Z" fill="#9FBFFF" fill-opacity="1.000000" fill-rule="evenodd"/>
					</g>
				</g>
			</g>
		</g>
		<path id="Vector" d="M112.8 115.74C112.67 115.74 112.54 115.72 112.41 115.67L106.67 113.68C106.05 113.47 105.73 112.79 105.94 112.18L105.98 112.08C106.08 111.78 106.29 111.55 106.58 111.41C106.86 111.27 107.18 111.25 107.47 111.35L113.22 113.35C113.83 113.56 114.16 114.23 113.95 114.85L113.91 114.95C113.81 115.24 113.59 115.48 113.31 115.62C113.15 115.7 112.98 115.74 112.8 115.74ZM106.21 112.28C106.05 112.74 106.3 113.25 106.76 113.41L112.51 115.4C112.97 115.56 113.48 115.31 113.64 114.85L113.68 114.75C113.84 114.29 113.59 113.78 113.13 113.62L107.38 111.63C107.15 111.55 106.91 111.56 106.7 111.67C106.49 111.77 106.33 111.95 106.25 112.18L106.21 112.28Z" fill="#FFFFFF" fill-opacity="1.000000" fill-rule="nonzero"/>
		<g opacity="0.180000">
			<path id="Vector" d="M112.91 58.64L137.54 80.42L134.63 88.82L110.75 64.41L112.91 58.64Z" fill="#FFFFFF" fill-opacity="1.000000" fill-rule="nonzero"/>
		</g>
		<g opacity="0.180000">
			<path id="Vector" d="M109.2 69.24L133.84 91.02L130.93 99.42L108.45 71.25L109.2 69.24Z" fill="#FFFFFF" fill-opacity="1.000000" fill-rule="nonzero"/>
		</g>
		<path id="Vector" d="M69.64 57.75L62.15 58.45C60.56 58.6 59.14 57.42 58.99 55.82L58.35 49C58.2 47.4 59.38 45.97 60.97 45.82L68.45 45.12C70.04 44.97 71.46 46.15 71.61 47.75L72.25 54.57C72.4 56.17 71.23 57.6 69.64 57.75Z" fill="#AA0D0D" fill-opacity="1.000000" fill-rule="nonzero"/>
		<path id="Vector" d="M69.76 56.71L62.86 57.36C61.39 57.5 60.08 56.41 59.94 54.94L59.35 48.67C59.21 47.2 60.3 45.89 61.77 45.75L68.67 45.1C70.14 44.96 71.45 46.05 71.59 47.52L72.18 53.79C72.32 55.26 71.23 56.57 69.76 56.71Z" fill="#FE5F5F" fill-opacity="1.000000" fill-rule="nonzero"/>
		<path id="Vector" d="M63.46 54.66C63.44 54.66 63.42 54.66 63.41 54.66L63.33 54.63L63.32 54.55C63.2 53.53 63.65 52.53 64.48 51.94C63.96 51.6 63.61 51.04 63.53 50.41C63.4 49.25 64.23 48.2 65.39 48.07C65.96 48 66.51 48.16 66.95 48.51C67.4 48.86 67.68 49.37 67.74 49.93C67.81 50.56 67.6 51.18 67.17 51.63C68.1 52.02 68.77 52.88 68.89 53.9L68.9 53.99L68.83 54.04C68.73 54.12 64.02 54.66 63.46 54.66ZM65.65 48.33C65.58 48.33 65.51 48.34 65.43 48.35C64.43 48.46 63.71 49.37 63.83 50.37C63.9 50.99 64.27 51.52 64.83 51.8L65.06 51.92L64.84 52.05C64.01 52.54 63.54 53.44 63.6 54.38C64.31 54.32 67.89 53.91 68.59 53.8C68.44 52.87 67.77 52.1 66.86 51.82L66.61 51.74L66.81 51.57C67.29 51.17 67.53 50.57 67.46 49.96C67.4 49.47 67.16 49.04 66.78 48.73C66.45 48.47 66.06 48.33 65.65 48.33Z" fill="#FFFFFF" fill-opacity="1.000000" fill-rule="nonzero"/>
		<path id="Vector" d="M117.62 134.01L101.14 128.82C100.76 128.7 100.35 128.91 100.23 129.29L99.67 131.06L99.4 131.93L96.71 140.45L96.48 141.19L96.44 141.31C96.32 141.69 96.54 142.09 96.92 142.21L113.4 147.41C113.78 147.53 114.18 147.31 114.31 146.93L114.35 146.79L114.56 146.13L117.47 136.9L117.74 136.04L118.09 134.92C118.21 134.54 118 134.13 117.62 134.01Z" fill="#FFFFFF" fill-opacity="1.000000" fill-rule="nonzero"/>
		<path id="Vector" d="M105.51 136.78L107.02 138.3C107.11 138.39 107.24 138.43 107.36 138.4L116.87 136.21L117.59 136.04C117.64 136.03 117.69 136.03 117.74 136.04L118.1 134.92C118.22 134.54 118 134.13 117.62 134.01L101.14 128.82C100.76 128.7 100.36 128.91 100.23 129.29L99.67 131.06L100.04 131.42L105.51 136.78Z" fill="#3865A7" fill-opacity="1.000000" fill-rule="nonzero"/>
		<path id="Vector" d="M99.4 131.93L96.71 140.45L104.76 137.19L99.4 131.93Z" fill="#3865A7" fill-opacity="1.000000" fill-rule="nonzero"/>
		<path id="Vector" d="M114.56 146.13L117.47 136.9L109.81 138.67L114.56 146.13Z" fill="#3865A7" fill-opacity="1.000000" fill-rule="nonzero"/>
		<path id="Vector" d="M113.91 146.62L108.97 138.86L107.53 139.19C107.33 139.23 107.12 139.22 106.92 139.16C106.75 139.1 106.58 139.01 106.44 138.87L105.38 137.8C105.35 137.82 105.33 137.83 105.3 137.85L96.89 141.26C96.8 141.3 96.7 141.3 96.62 141.27C96.57 141.25 96.52 141.23 96.48 141.19L96.45 141.31C96.33 141.69 96.54 142.09 96.92 142.21L113.4 147.41C113.78 147.53 114.19 147.31 114.31 146.93L114.35 146.79C114.28 146.81 114.2 146.81 114.14 146.79C114.05 146.76 113.97 146.7 113.91 146.62Z" fill="#3865A7" fill-opacity="1.000000" fill-rule="nonzero"/>
		<path id="Vector" d="M107 88.31L100.63 91.06C99.27 91.64 97.69 91.01 97.11 89.66L94.61 83.87C94.03 82.51 94.66 80.93 96.01 80.35L102.38 77.6C103.74 77.02 105.32 77.65 105.9 79L108.4 84.79C108.98 86.14 108.35 87.73 107 88.31Z" fill="#AA0D0D" fill-opacity="1.000000" fill-rule="nonzero"/>
		<path id="Vector" d="M106.72 87.59L100.35 90.33C99 90.92 97.41 90.28 96.83 88.93L94.34 83.14C93.75 81.79 94.38 80.2 95.74 79.62L102.11 76.88C103.46 76.29 105.04 76.92 105.63 78.28L108.12 84.07C108.7 85.42 108.07 87 106.72 87.59Z" fill="#FE5F5F" fill-opacity="1.000000" fill-rule="nonzero"/>
		<path id="Vector" d="M101.23 85.99C100.31 85.99 99.42 85.45 99.03 84.55C98.51 83.34 99.07 81.93 100.28 81.41C100.87 81.16 101.52 81.15 102.11 81.39C102.71 81.62 103.17 82.07 103.42 82.66C103.68 83.25 103.68 83.9 103.45 84.49C103.21 85.08 102.76 85.55 102.18 85.8C101.87 85.93 101.54 85.99 101.23 85.99ZM101.23 81.5C100.95 81.5 100.66 81.56 100.4 81.67C99.33 82.13 98.84 83.37 99.3 84.44C99.76 85.5 101 85.99 102.06 85.53C102.58 85.31 102.97 84.9 103.18 84.38C103.39 83.86 103.38 83.29 103.16 82.77C102.94 82.26 102.53 81.86 102.01 81.65C101.75 81.55 101.49 81.5 101.23 81.5Z" fill="#FFFFFF" fill-opacity="1.000000" fill-rule="nonzero"/>
		<path id="Vector" d="M144.16 87.84L134.27 86.97C132.16 86.79 130.6 84.92 130.78 82.81L131.57 73.82C131.75 71.72 133.63 70.15 135.73 70.34L145.62 71.21C147.72 71.39 149.29 73.26 149.1 75.37L148.32 84.36C148.13 86.46 146.26 88.03 144.16 87.84Z" fill="#3A93FB" fill-opacity="1.000000" fill-rule="nonzero"/>
		<path id="Vector" d="M145.34 86.83L135.45 85.96C133.35 85.78 131.78 83.91 131.97 81.81L132.76 72.81C132.94 70.71 134.81 69.15 136.92 69.33L146.81 70.2C148.91 70.38 150.48 72.26 150.29 74.36L149.5 83.35C149.31 85.45 147.45 87.02 145.34 86.83Z" fill="#3865A7" fill-opacity="1.000000" fill-rule="nonzero"/>
		<path id="Vector" d="M140.91 82.74C140.85 82.74 140.79 82.73 140.73 82.73C139.8 82.64 139.05 81.9 138.96 80.97L138.94 80.79L142.85 81.16L142.8 81.33C142.55 82.17 141.77 82.74 140.91 82.74ZM139.28 81.11C139.42 81.83 140.02 82.37 140.76 82.44C141.5 82.51 142.19 82.09 142.46 81.42L139.28 81.11Z" fill="#FFFFFF" fill-opacity="1.000000" fill-rule="nonzero"/>
		<path id="Vector" d="M143.78 81.53C143.72 81.53 143.66 81.53 143.6 81.52L138.14 81.01C137.12 80.91 136.36 80 136.46 78.98C136.54 78.12 137.2 77.44 138.04 77.31L138.21 75.54C138.37 73.79 139.92 72.5 141.68 72.66C143.42 72.83 144.72 74.39 144.55 76.14L144.38 77.91C145.19 78.19 145.71 78.98 145.63 79.84C145.58 80.33 145.34 80.78 144.96 81.1C144.62 81.38 144.21 81.53 143.78 81.53ZM141.38 72.94C139.9 72.94 138.64 74.07 138.49 75.57L138.3 77.58L138.18 77.59C137.42 77.65 136.82 78.25 136.75 79.01C136.67 79.87 137.3 80.64 138.16 80.72L143.63 81.24C144.05 81.28 144.45 81.15 144.78 80.88C145.1 80.61 145.3 80.24 145.34 79.82C145.41 79.06 144.92 78.36 144.19 78.16L144.08 78.13L144.27 76.11C144.42 74.52 143.24 73.11 141.65 72.95C141.56 72.94 141.47 72.94 141.38 72.94Z" fill="#FFFFFF" fill-opacity="1.000000" fill-rule="nonzero"/>
		<path id="Vector" d="M86.44 116.83L51.11 132.34C49.5 133.05 47.62 132.31 46.91 130.7L40.77 116.72C40.06 115.11 40.8 113.23 42.41 112.52L77.74 97.01C79.35 96.3 81.23 97.04 81.94 98.65L88.07 112.63C88.78 114.24 88.05 116.12 86.44 116.83Z" fill="#AA0D0D" fill-opacity="1.000000" fill-rule="nonzero"/>
		<path id="Vector" d="M86.5 114.49L50.57 130.26C49.46 130.75 48.16 130.24 47.68 129.13L41.59 115.28C41.11 114.17 41.61 112.88 42.72 112.39L78.65 96.61C79.76 96.13 81.05 96.63 81.54 97.74L87.62 111.6C88.11 112.71 87.61 114 86.5 114.49Z" fill="#FE5F5F" fill-opacity="1.000000" fill-rule="nonzero"/>
		<path id="Vector" d="M46.44 114.87L57.05 110.21L61.71 120.82L51.1 125.48L46.44 114.87Z" fill="#FFFFFF" fill-opacity="1.000000" fill-rule="evenodd"/>
		<path id="Vector" d="M61.69 111.2C61.58 111.2 61.48 111.14 61.43 111.03C61.37 110.88 61.43 110.71 61.58 110.65L77.4 103.7C77.55 103.64 77.72 103.7 77.78 103.85C77.84 103.99 77.78 104.16 77.63 104.23L61.81 111.17C61.77 111.19 61.73 111.2 61.69 111.2Z" fill="#FFFFFF" fill-opacity="1.000000" fill-rule="nonzero"/>
		<path id="Vector" d="M65.22 119.23C65.11 119.23 65.01 119.17 64.96 119.06C64.89 118.91 64.96 118.74 65.1 118.68L80.93 111.73C81.07 111.67 81.24 111.74 81.31 111.88C81.37 112.03 81.3 112.2 81.16 112.26L65.34 119.21C65.3 119.22 65.26 119.23 65.22 119.23Z" fill="#FFFFFF" fill-opacity="1.000000" fill-rule="nonzero"/>
		<path id="Vector" d="M63.46 115.22C63.35 115.22 63.24 115.15 63.19 115.04C63.13 114.9 63.19 114.73 63.34 114.66L71.69 111C71.84 110.93 72.01 111 72.07 111.14C72.13 111.29 72.07 111.46 71.92 111.52L63.57 115.19C63.53 115.21 63.5 115.22 63.46 115.22Z" fill="#FFFFFF" fill-opacity="1.000000" fill-rule="nonzero"/>
		<path id="Vector" d="M73.74 110.7C73.63 110.7 73.52 110.64 73.47 110.53C73.41 110.38 73.48 110.21 73.62 110.15L79.16 107.71C79.31 107.65 79.48 107.72 79.54 107.86C79.6 108.01 79.54 108.18 79.39 108.24L73.85 110.68C73.82 110.7 73.78 110.7 73.74 110.7Z" fill="#FFFFFF" fill-opacity="1.000000" fill-rule="nonzero"/>
		<path id="Vector" d="M147.13 122.01C147.26 125 143.95 131.53 142.3 134.22C141.97 134.75 140.83 135.35 139.94 134.23C138 131.76 133.63 125.57 133.51 122.58C133.35 118.81 136.27 115.64 140.04 115.48C143.8 115.32 146.98 118.24 147.13 122.01Z" fill="#AA0D0D" fill-opacity="1.000000" fill-rule="nonzero"/>
		<path id="Vector" d="M147.87 121.64C147.99 124.64 143.95 131.53 142.3 134.22C141.97 134.75 141.21 134.78 140.84 134.28C138.97 131.74 134.37 125.21 134.24 122.21C134.08 118.45 137 115.27 140.77 115.11C144.53 114.96 147.71 117.88 147.87 121.64Z" fill="#FE5F5F" fill-opacity="1.000000" fill-rule="nonzero"/>
		<path id="Vector" d="M145.09 121.64C145.18 123.87 143.45 125.76 141.22 125.85C138.99 125.94 137.1 124.21 137.01 121.98C136.92 119.75 138.65 117.86 140.88 117.77C143.11 117.67 145 119.41 145.09 121.64Z" fill="#FFFFFF" fill-opacity="1.000000" fill-rule="nonzero"/>
	</g>
</svg>
